<?xml version="1.0" encoding="UTF-8"?> <svg xmlns="http://www.w3.org/2000/svg" id="Слой_1" data-name="Слой 1" viewBox="0 0 259 83"> <defs> <style>.cls-1{fill:none;stroke:#000;stroke-miterlimit:10;stroke-width:3px;}.cls-2{fill:#fff;}</style> </defs> <title>Безымянный-3</title> <rect class="cls-1" x="9" y="7" width="221.08" height="63"></rect> <rect x="22.92" y="13" width="221.08" height="63"></rect> <path class="cls-2" d="M60.12,55.4a13.05,13.05,0,0,1-9.47,3.76,13.05,13.05,0,0,1-9.47-3.76,13.36,13.36,0,0,1-3.86-10,13.37,13.37,0,0,1,3.86-10,13.05,13.05,0,0,1,9.47-3.76,13.05,13.05,0,0,1,9.47,3.76,13.37,13.37,0,0,1,3.86,10A13.36,13.36,0,0,1,60.12,55.4ZM55.7,39.6a6.79,6.79,0,0,0-10.1,0,8.6,8.6,0,0,0-1.92,5.78,8.58,8.58,0,0,0,1.92,5.78,6.79,6.79,0,0,0,10.1,0,8.58,8.58,0,0,0,1.92-5.78A8.6,8.6,0,0,0,55.7,39.6Z"></path> <path class="cls-2" d="M88.31,58.36H82.05V37.76H74.68V32.41h21v5.35H88.31Z"></path> <path class="cls-2" d="M113.65,40l-5.6-.81a8.54,8.54,0,0,1,3-5.4,9.31,9.31,0,0,1,6.34-2.17,10.1,10.1,0,0,1,6.39,1.87,5.91,5.91,0,0,1,2.39,4.89,6.12,6.12,0,0,1-3,5.46,6.7,6.7,0,0,1,3.16,2.6,7.19,7.19,0,0,1,1.19,4.06,8,8,0,0,1-2.76,6.18,10.18,10.18,0,0,1-7.14,2.5,10,10,0,0,1-7.19-2.5,10.34,10.34,0,0,1-3.21-6.18l5.71-1.11a5.3,5.3,0,0,0,1.54,3.15,4.32,4.32,0,0,0,3.15,1.19,4,4,0,0,0,2.75-.91,3.12,3.12,0,0,0,1-2.47,3.63,3.63,0,0,0-1.16-2.85,4.78,4.78,0,0,0-3.28-1h-.81V42.1h1.06a3.56,3.56,0,0,0,2.34-.76,2.66,2.66,0,0,0,.94-2.22,2.38,2.38,0,0,0-.86-1.89,3.9,3.9,0,0,0-4.8.2A4.16,4.16,0,0,0,113.65,40Z"></path> <path class="cls-2" d="M141.17,32.41h6.26v10.5H153a10,10,0,0,1,6.59,2,6.86,6.86,0,0,1,2.4,5.58,7.27,7.27,0,0,1-2.43,5.76A9.62,9.62,0,0,1,153,58.36H141.17Zm6.26,15v6.06h4.69a4.36,4.36,0,0,0,2.73-.78,3,3,0,0,0,0-4.5,4.36,4.36,0,0,0-2.73-.78ZM165.8,58.36V32.41h6.26v26Z"></path> <path class="cls-2" d="M199.22,58.36H187.36V32.41h11.26a10,10,0,0,1,6.53,1.92,5.91,5.91,0,0,1,2.35,4.79,6.53,6.53,0,0,1-3.58,6A6.48,6.48,0,0,1,207,47.35a5.82,5.82,0,0,1,1.21,3.58,6.67,6.67,0,0,1-2.42,5.43A10,10,0,0,1,199.22,58.36ZM193.62,37v6h4.74a3.54,3.54,0,0,0,2.38-.78,3.11,3.11,0,0,0,0-4.4,3.54,3.54,0,0,0-2.38-.78Zm0,10.5v6.06h4.74a4.34,4.34,0,0,0,2.73-.78,3,3,0,0,0,0-4.5,4.34,4.34,0,0,0-2.73-.78Z"></path> <path class="cls-2" d="M221.84,58.36V51.49h6.87v6.87Z"></path> </svg> 