<?xml version="1.0" encoding="UTF-8"?> <svg xmlns="http://www.w3.org/2000/svg" id="Слой_1" data-name="Слой 1" viewBox="0 0 377 263"> <defs> <style>.cls-1{fill:none;stroke:#fff;stroke-miterlimit:10;stroke-width:6px;}.cls-2{fill:#fff;}</style> </defs> <title>логооо бел</title> <path class="cls-1" d="M263.71,196.25a95.8,95.8,0,0,1-135.41,4.27q-2.21-2.07-4.27-4.27"></path> <path class="cls-1" d="M122,67.3a95.8,95.8,0,0,1,143.7,0"></path> <polygon class="cls-2" points="270.67 81.45 270.45 82.09 271.01 82.47 271.65 82.09 271.43 81.3 270.67 81.45 270.67 81.45"></polygon> <polygon class="cls-2" points="216.81 98.55 217.85 99.37 218.32 98.62 218.48 98 217.9 97.64 217.22 97.54 216.81 98.55 216.81 98.55"></polygon> <polygon class="cls-2" points="214.8 100.97 215.13 101.39 216.28 100.68 216.03 100 215.31 99.97 214.9 100.59 214.8 100.97 214.8 100.97"></polygon> <polygon class="cls-2" points="240.22 90.3 241.95 90.52 242.02 91.39 241.35 91.58 240.56 91.09 240.22 90.3 240.22 90.3"></polygon> <polygon class="cls-2" points="244.77 87.43 245.08 88.83 245.79 88.83 245.94 87.58 245.22 86.98 244.77 87.43 244.77 87.43"></polygon> <polygon class="cls-2" points="246.35 88.6 246.35 90.18 248.12 89.8 249.78 88.94 249.22 87.66 248.12 87.51 247.29 87.32 246.69 88.23 246.35 88.6 246.35 88.6"></polygon> <polygon class="cls-2" points="246.92 79.79 247.45 80.92 250.83 80.96 251.81 79.15 251.17 77.76 250.46 78.55 249.07 78.44 248.69 79.08 247.93 79.08 247.82 79.83 246.92 79.79 246.92 79.79"></polygon> <polygon class="cls-2" points="245.6 74.14 245.37 74.97 246.05 75.13 246.32 74.41 245.6 74.14 245.6 74.14"></polygon> <polygon class="cls-2" points="243.79 81.45 244.59 82.65 246.05 82.95 246.09 81.26 245.6 80.43 243.87 80.32 242.97 80.96 241.57 80.73 241.46 81.67 242.29 82.54 241.84 83.07 240.52 81.98 238.94 82.13 238.82 83.41 238.97 84.73 239.69 85.63 239.95 86.64 241.42 87.06 242.77 86.95 242.66 85.51 243.64 85.63 244.4 84.39 245.3 84.58 245.9 83.9 245.3 83.29 243.98 82.92 242.93 81.67 243.79 81.45 243.79 81.45"></polygon> <polygon class="cls-2" points="237.17 84.61 237.39 85.63 238.29 86.68 238.86 86.46 238.18 85.21 237.17 84.61 237.17 84.61"></polygon> <polygon class="cls-2" points="276.23 82.37 275.78 83.26 273.32 84.64 271.53 82.94 269.74 82.76 267.18 84.42 265.44 86.57 264.82 88.76 263.65 89.12 262.22 88.4 260.83 88.54 260.12 89.48 259.49 88.94 258.91 89.57 258.19 88.89 259.22 87.87 256.8 87.69 255.42 88.89 256.18 91.49 254.79 92.83 254.79 90.82 253.85 90.82 252.91 91.67 252.69 90.64 254.08 89.39 252.6 89.48 248.22 91.72 249.07 92.74 247.81 93.95 248.3 94.84 249.2 94.4 249.29 95.69 250.36 96.95 248.71 97.35 248.22 98.02 248.66 99.09 247.32 99.32 245.53 98.78 244.99 100.79 241.95 100.26 241.95 104.73 239.8 104.38 236.49 101.38 237.7 100.53 235.69 97.53 234.39 96.9 232.42 97.57 230.23 96.72 229.91 100.13 225.93 101.83 224.41 100.79 224.64 99.99 220.56 99.94 219.49 101.38 219.22 102.32 218.95 100.93 218.19 100.26 217.3 101.2 216.06 101.82 215.99 102.67 216.57 103.44 216.58 103.46 216.58 103.48 216.85 104.86 218.76 107.57 218.78 107.59 218.78 107.62 218.78 109.38 219.76 110.56 219.81 110.62 219.75 110.67 217.51 112.45 217.38 113.48 217.38 113.5 217.37 113.51 216.85 114.3 216.45 116.21 216.43 116.29 216.36 116.28 215.26 116.15 213.5 117.59 213.49 117.59 213.48 117.6 212.89 117.9 214.29 120.05 214.3 120.07 214.3 120.09 214.78 126.08 214.78 126.12 214.76 126.15 213.53 127.51 214.34 128.13 214.38 128.16 214.37 128.22 214.04 129.81 214.76 130.6 214.78 130.62 214.78 130.65 214.78 131.76 215.63 132.35 215.68 132.39 215.66 132.45 215.25 133.54 215.25 133.56 215.24 133.57 213.96 135.11 213.84 136.22 215.92 136.22 215.95 136.22 215.97 136.24 216.88 136.95 217.85 136.3 217.91 136.26 217.96 136.32 218.51 137 218.55 137.06 218.55 137.06 219.26 138.14 219.31 138.21 219.24 138.26 218.43 138.77 218.43 139.73 219.32 139.8 220.07 139.28 220.15 139.22 220.19 139.3 221.12 141.08 221.13 141.1 221.13 141.12 221.05 143.23 222.24 143.9 222.29 143.93 222.28 143.99 221.75 146.2 222.41 147.68 223.92 148.13 224.01 148.16 223.97 148.24 222.82 150.93 222.59 154.27 223.75 155.5 225 154.54 225.02 154.53 225.05 154.53 226.93 154.45 227.6 153.25 227.65 153.16 227.73 153.24 228.75 154.26 230.07 152.71 232.15 148.25 232.16 148.21 232.21 148.21 233.6 147.97 233.62 147.97 233.64 147.98 236.34 149.06 236.37 149.07 236.39 149.11 236.97 150.87 238.59 150.14 238.63 150.12 238.66 150.15 239.67 150.84 239.69 150.85 239.7 150.87 241.51 154.99 243.87 159.37 245.36 158.39 245.36 158.39 245.37 158.39 246.92 157.77 246.96 157.75 247 157.78 248.18 158.74 248.82 158.17 248.87 158.12 248.93 158.17 249.87 159.04 250.74 158.17 250.76 158.15 250.8 158.15 252.96 158.23 252.99 158.23 253.01 158.24 254.36 159.29 257.02 158.31 257.06 158.29 257.1 158.33 257.98 159.06 261.63 157.39 261.66 157.38 261.69 157.38 262.74 157.61 263.89 157.18 263.75 156.32 263.74 156.26 263.79 156.23 266.62 154.76 265.91 152.77 265.89 152.72 265.93 152.68 266.88 151.67 266.48 150.68 264.67 149.5 264.61 149.46 264.65 149.4 265.6 147.56 263.83 146.34 263.75 146.28 263.81 146.21 264.64 145.25 264.64 141.2 264.64 141.14 264.69 141.12 268.16 139.8 268.3 138.24 268.3 138.16 268.38 138.16 270.43 138.02 270.9 136.75 270.83 135.43 270.83 135.38 270.88 135.35 271.87 134.89 271.12 132.24 269.74 131.27 269.69 131.24 269.71 131.18 270.62 127.97 269.36 124.62 269.34 124.58 269.37 124.54 270.07 123.62 270.11 123.58 270.17 123.6 272.61 124.43 274.17 124.09 274.71 123.14 274.73 123.11 274.77 123.1 276.62 122.83 276.95 121.64 273.87 115.27 273.86 115.24 273.87 115.22 274.18 113.65 274.19 113.62 274.21 113.6 276.27 112.15 275.5 110.66 275.47 110.6 275.52 110.56 277.51 108.69 277.53 108.67 277.56 108.66 279.34 108.48 280.35 107.34 280.53 105.35 279.38 104.32 279.36 104.3 279.35 104.26 279.29 102.98 278.56 101.87 278.52 101.82 278.57 101.77 279.45 100.95 278.5 99.82 278.45 99.77 278.51 99.71 280.81 97.59 280.83 97.58 280.84 97.58 281.88 97.15 282.65 96.02 281.19 93 279.38 93 279.36 93 279.34 92.99 277.91 92.37 277.88 92.36 277.86 92.32 277.11 90.39 277.1 90.34 277.13 90.31 280.04 86.9 280.04 85.23 276.23 82.37 276.23 82.37"></polygon> <polygon class="cls-2" points="280.75 60.08 282.68 62.37 283.1 61.94 283.63 59.31 284.26 58.07 283.55 57.13 281.8 57.27 280.75 58.85 280.75 60.08 280.75 60.08"></polygon> <polygon class="cls-2" points="310.53 83.09 310.09 78.25 308.75 77.49 311.93 75.29 311.48 73.82 305.57 73.33 304.86 74.26 303.25 74.4 303.07 75.65 301.77 75.56 301.77 73.82 303.25 73.33 303.83 72.12 303.52 68.94 302.93 68.71 302.22 69.16 302.17 68 300.78 68.54 299.85 67.46 300.21 65.72 301.37 66.75 302.04 66.21 303.02 67.29 303.61 65.94 303.47 64.33 304.54 63.44 306.42 63.61 309.56 61.24 308.8 60.35 310.36 60.57 310.32 59.05 308.62 59.36 308.12 58.29 305.84 57.84 306.74 56.73 305.57 55.88 306.65 55.11 305.31 53.37 301.5 55.61 301.28 57.44 300.25 58.78 302.8 59.81 301.41 60.44 297.3 59.32 292.51 62.5 285.35 66.39 283.43 69.52 283.61 70.46 282.31 70.82 280.47 72.48 281.77 74.09 282.93 73.73 284.68 74.71 284.5 76.46 282.89 76.64 281.82 77.26 279.53 75.83 279.53 78.74 277.21 80.48 276.31 82.22 280.17 85.12 280.21 85.14 280.21 85.18 280.21 86.93 280.21 86.96 280.18 86.98 277.29 90.37 278 92.23 279.39 92.83 281.24 92.83 281.29 92.83 281.32 92.88 282.05 94.4 283.25 94.58 283.29 94.58 283.31 94.62 284.08 95.99 285.7 95.21 285.73 95.19 285.76 95.2 287.27 95.69 288.42 94.66 288.44 94.64 288.47 94.64 290.25 94.52 291.57 93.14 291.33 91.81 291.31 91.74 291.38 91.72 292.71 91.29 293.07 90.02 293.09 89.97 293.14 89.97 294.27 89.85 294.63 88.77 294.65 88.73 294.69 88.72 296.77 88.23 297.32 87.26 297.34 87.22 297.38 87.22 300.5 87.04 300.56 87.03 300.58 87.09 301.31 89.07 303.47 88.41 303.49 88.41 303.5 88.41 305.87 88.47 307.78 82.98 307.82 82.88 307.9 82.93 309.06 83.54 310.53 83.09 310.53 83.09"></polygon> <polygon class="cls-2" points="325.17 107.66 325.87 108.36 327.23 107.24 326.64 107.11 325.17 107.66 325.17 107.66"></polygon> <polygon class="cls-2" points="319.34 137.03 319.45 137.56 320.12 137.99 320.45 137.17 320.08 136.56 319.34 137.03 319.34 137.03"></polygon> <polygon class="cls-2" points="321.47 136.03 321.36 136.53 322.1 136.82 322.49 136.38 321.78 135.75 321.47 136.03 321.47 136.03"></polygon> <polygon class="cls-2" points="321.01 137.12 320.84 139.19 321.65 140.23 322.39 139.89 322.23 137.84 321.65 137.3 321.01 137.12 321.01 137.12"></polygon> <polygon class="cls-2" points="322.17 141.71 322.06 142.48 322.41 143.24 323.36 142.8 323.49 142.3 322.17 141.71 322.17 141.71"></polygon> <polygon class="cls-2" points="323.4 147.76 323.04 148.44 323.58 149.21 324.23 148.59 323.82 147.82 323.4 147.76 323.4 147.76"></polygon> <polygon class="cls-2" points="323.46 151.59 323.82 152.19 324.32 152.01 324.44 151.06 323.78 150.91 323.46 151.59 323.46 151.59"></polygon> <polygon class="cls-2" points="323.9 153.13 323.37 153.7 323.78 154.83 325.03 154.5 324.62 153.34 323.9 153.13 323.9 153.13"></polygon> <polygon class="cls-2" points="323.07 157.83 322.45 158.45 322.48 159.76 322.51 161.13 322.54 161.75 323.19 161.75 323.73 160.21 323.61 158.69 323.07 157.83 323.07 157.83"></polygon> <polygon class="cls-2" points="321.2 162.94 321.86 162.97 322.06 163.83 321.59 164.57 320.96 165.46 320.9 166.44 320.72 167.66 320.61 168.58 320.31 168.43 320.07 166.83 320.01 164.84 320.82 164.01 321.26 163.62 321.2 162.94 321.2 162.94"></polygon> <polygon class="cls-2" points="318.85 173.56 319.17 173.42 319.29 171.1 319.7 170.64 319.77 170.03 319.35 169.76 318.69 170.07 318.33 170.35 318.65 171.37 318.54 172.69 318.85 173.56 318.85 173.56"></polygon> <polygon class="cls-2" points="321.29 171.23 321.51 171.73 322.16 171.5 322.02 170.8 321.66 170.3 321.3 170.65 321.29 171.23 321.29 171.23"></polygon> <polygon class="cls-2" points="308.68 103.03 308.15 104.6 310.14 106.82 310.41 103.62 309.34 103.14 308.68 103.03 308.68 103.03"></polygon> <polygon class="cls-2" points="321.76 108.88 322.28 109.68 324.27 109.99 325.07 109.58 324.58 108.74 323.12 108.57 321.76 108.88 321.76 108.88"></polygon> <polygon class="cls-2" points="285.72 126.51 286.92 125.72 287.72 125.04 288.84 124.78 288.48 122.5 290.45 121.87 291.97 120.53 293.36 120.48 292.33 121.96 293.32 122.81 294.75 121.2 295.11 118.65 296.4 118.16 297.43 116.81 296.36 116.01 295.42 117.17 294.43 116.23 294.17 111.62 293.32 108.89 293.58 106.88 295.24 104.51 296.18 104.47 296.62 103.12 298.55 105.76 299.89 105.54 299.98 104.55 299.67 102.54 299.33 101.12 298.04 100.39 298 100.38 298 100.34 297.75 99.05 296.91 98.27 295.57 98.39 295.51 98.4 295.49 98.34 294.69 96.25 293.54 96.01 293.5 96 293.48 95.97 291.64 93.29 290.35 94.66 290.32 94.68 290.29 94.68 288.51 94.8 287.35 95.85 287.31 95.88 287.27 95.86 285.74 95.37 284.09 96.17 284.02 96.2 283.98 96.14 283.19 94.74 282.13 94.58 282.81 96 282.84 96.04 282.81 96.08 282 97.26 281.98 97.28 281.96 97.29 280.91 97.72 278.68 99.78 279.63 100.9 279.68 100.96 279.62 101.02 278.74 101.84 279.44 102.91 279.46 102.92 279.46 102.95 279.52 104.22 280.67 105.26 280.71 105.28 280.71 105.33 280.52 107.38 280.51 107.41 280.5 107.43 279.44 108.62 279.41 108.64 279.38 108.64 277.6 108.83 275.67 110.63 276.46 112.14 276.49 112.2 276.43 112.25 274.34 113.72 274.04 115.22 277.07 121.51 278.47 120.58 278.5 120.56 278.54 120.57 281.71 121.63 281.75 121.64 281.76 121.69 282.12 123.45 282.12 123.48 282.11 123.5 281.35 124.87 281.92 126.01 283.18 125.09 283.21 125.07 283.23 125.07 284.85 125.07 284.9 125.07 284.92 125.11 285.72 126.51 285.72 126.51"></polygon> <polygon class="cls-2" points="288.16 180.76 287.99 185.98 288.93 187.59 285.26 187.91 284.05 190.55 287.46 194.04 287.54 195.34 289.42 193.55 292.64 193.59 294.97 191.71 296.36 188.94 297.03 181.33 297.97 177.35 297.34 172.69 296.42 172.43 296.37 172.42 296.36 172.36 296.14 171.25 294.61 170.16 292.9 171.44 293.92 172.54 295.53 172.68 295.62 172.69 295.61 172.77 295.24 175.29 295.23 175.37 295.16 175.37 294.02 175.41 294.19 177.02 294.19 177.07 294.15 177.1 292.5 178.2 292.48 178.21 292.46 178.21 289.75 178.39 289.07 179.28 289.59 180.34 289.64 180.44 289.54 180.46 288.16 180.76 288.16 180.76"></polygon> <polygon class="cls-2" points="286.66 175.13 287.86 177.08 287.41 178.51 288.14 180.6 289.39 180.32 288.89 179.32 288.87 179.27 288.9 179.23 289.63 178.26 289.66 178.23 289.7 178.23 292.42 178.05 294.02 176.99 293.84 175.34 293.83 175.25 293.92 175.25 295.09 175.21 295.43 172.84 293.87 172.71 293.84 172.7 293.82 172.68 292.71 171.49 292.65 171.42 292.73 171.36 294.56 169.99 294.61 169.95 294.66 169.99 296.26 171.13 296.29 171.15 296.3 171.18 296.52 172.28 297.34 172.51 297.75 167.24 297.16 165.58 294.57 160.3 293.72 159.27 292.96 155.56 292.44 154.33 292.26 154.13 290.32 153.32 289.64 152.52 290.23 151.35 288.79 150.77 285.8 150.24 283.47 151.44 282.67 154.98 281.68 153.73 280.56 155.16 279.62 152.43 277.65 153.64 276 153.37 276.09 151.8 278.24 146.43 278.77 141.06 279.4 138.47 278.87 136.32 279.58 134.4 279.27 132.34 283.78 127.91 285.22 128.18 285.35 127.64 284.95 127.01 285.58 126.6 284.8 125.24 283.26 125.24 281.94 126.2 281.86 126.26 281.82 126.18 281.19 124.91 281.16 124.87 281.19 124.83 281.95 123.45 281.61 121.77 278.53 120.74 277.11 121.69 276.77 122.92 276.75 122.98 276.7 122.98 274.84 123.26 274.3 124.21 274.28 124.24 274.24 124.25 272.62 124.6 272.6 124.61 272.58 124.6 270.17 123.77 269.53 124.6 270.78 127.94 270.79 127.97 270.78 127.99 269.88 131.17 271.24 132.12 271.27 132.14 271.28 132.17 272.05 134.91 272.07 134.98 272.01 135.01 271 135.48 271.07 136.76 271.07 136.78 271.06 136.79 270.57 138.13 270.55 138.18 270.5 138.19 268.46 138.32 268.32 139.87 268.32 139.92 268.27 139.94 264.8 141.25 264.8 145.28 264.8 145.31 264.78 145.33 264 146.25 265.75 147.46 265.81 147.51 265.78 147.57 264.83 149.41 266.6 150.56 266.62 150.58 266.63 150.6 267.05 151.65 267.07 151.7 267.03 151.74 266.08 152.76 266.76 154.68 269.57 153.22 269.63 153.19 269.67 153.24 270.6 154.24 270.63 154.28 270.61 154.34 269.23 157.32 269.38 158.76 269.39 158.82 269.34 158.85 268.31 159.43 268.38 160.61 270.69 160.61 270.74 160.61 270.76 160.65 271.81 162.23 272.97 162.16 274.86 160.43 275.16 159.14 275.17 159.08 275.24 159.08 276.65 159.08 277.09 158.19 277.12 158.14 277.18 158.15 278.18 158.3 278.23 158.31 278.25 158.36 279.17 161.21 279.19 161.26 279.15 161.3 278.54 161.91 278.52 161.93 278.49 161.94 276.21 162.3 276.78 163.51 276.8 163.57 276.76 163.61 275.86 164.59 275.63 165.88 275.62 165.9 275.61 165.92 274.26 167.49 274.84 168.2 274.88 168.25 274.84 168.3 273.93 169.52 273.93 170.98 276.36 172.19 276.37 172.2 276.38 172.21 278.33 174.91 279.55 173.76 279.58 173.73 279.61 173.74 282.22 173.78 282.25 173.78 282.28 173.8 283.43 174.73 286.92 173.55 287.07 173.51 287.03 173.65 286.66 175.13 286.66 175.13"></polygon> <polygon class="cls-2" points="276.76 177.56 278.1 179.68 279.53 180.93 282.58 179.45 282.98 178.2 285.26 175.65 286.51 175.08 286.83 173.76 283.45 174.9 283.4 174.92 283.37 174.89 282.19 173.95 279.64 173.9 278.38 175.09 276.76 177.56 276.76 177.56"></polygon> <polygon class="cls-2" points="252.41 169.61 255.46 168.04 257.79 168.85 260.61 168.4 264.73 172.47 269.83 177.75 271.84 176.95 273.09 177.53 273.99 177.08 275.69 177.62 276.61 177.5 278.22 175.04 276.26 172.33 273.81 171.1 273.77 171.08 273.77 171.03 273.77 169.49 273.77 169.46 273.78 169.44 274.67 168.25 274.09 167.53 274.05 167.48 274.09 167.43 275.47 165.83 275.7 164.54 275.7 164.51 275.72 164.5 276.6 163.53 276.01 162.28 275.96 162.18 276.07 162.16 278.44 161.78 279 161.21 278.1 158.46 277.21 158.33 276.78 159.2 276.75 159.24 276.7 159.24 275.3 159.24 275.01 160.49 275.01 160.51 274.99 160.53 273.06 162.3 273.04 162.32 273.01 162.33 271.77 162.4 271.73 162.4 271.7 162.37 270.65 160.78 268.3 160.78 268.22 160.78 268.22 160.7 268.14 159.39 268.14 159.34 268.18 159.32 269.21 158.73 269.07 157.32 269.06 157.29 269.07 157.27 270.44 154.32 269.59 153.4 263.92 156.35 264.06 157.22 264.08 157.28 264.01 157.31 262.78 157.77 262.75 157.78 262.73 157.77 261.68 157.55 258 159.23 257.96 159.25 257.91 159.22 257.03 158.48 254.37 159.47 254.33 159.48 254.3 159.45 252.93 158.39 250.83 158.32 249.93 159.22 249.88 159.27 249.82 159.22 248.87 158.35 248.24 158.91 248.18 158.96 248.13 158.91 246.93 157.94 245.44 158.54 244 159.49 245.83 160.71 245.89 160.75 245.85 160.82 245.3 161.59 246.14 162.43 247.67 161.58 247.75 161.54 247.79 161.62 248.52 162.91 249.69 162.63 249.78 162.61 249.79 162.71 249.96 165 251.16 165.69 251.24 165.74 251.18 165.81 250.51 166.76 252.41 169.61 252.41 169.61"></polygon> <polygon class="cls-2" points="292.44 154.33 292.38 154.17 295.02 155.61 295.87 157.84 297.16 159.5 298.73 162 299.85 163.84 301.14 164.82 301.55 165.99 301.91 167.01 303.52 167.77 303.74 169.39 305.39 171.49 305.53 169.65 305.31 168.26 306.6 168.18 307.1 167.95 308.3 168.58 307.32 166.52 305.89 166.52 304.37 165.85 302.62 164.6 301.5 161.74 300.87 159.9 302.22 159.14 304.72 159.01 299.09 155.2 295.11 151.62 293.27 148.17 290.76 146.43 289.6 144.96 288.79 145.31 288.62 146.16 290.09 147.19 290.9 148.4 290.45 148.98 289.73 148.8 289.51 149.83 290.94 150.91 292.38 154.17 292.26 154.13 292.44 154.33 292.44 154.33"></polygon> <polygon class="cls-2" points="78.4 134.54 78.78 135.25 78.71 136.89 79.85 137.5 79.86 137.5 80.68 138.04 81.44 137.51 81.47 137.49 81.5 137.5 82.65 137.56 83.86 136.82 84 135.89 84 135.81 84.09 135.82 85.45 136 86.16 135.78 86.23 135.76 86.26 135.82 86.79 136.89 88 137.32 88.26 137.08 88.34 135.74 87.57 135.15 87.54 135.13 87.53 135.09 87.48 134.23 86.99 133.76 86.24 133.21 86.2 133.18 86.21 133.14 86.29 131.82 84.79 130.66 84.76 130.64 84.76 130.6 84.62 129.72 84.05 129.45 84 129.42 84 129.37 84 128.81 83.77 128.41 82.92 128.36 82.77 128.71 82.76 128.75 82.71 128.76 82.36 128.82 82.32 128.82 82.28 128.78 82.05 128.5 81.68 128.5 81.13 129 81.13 129.95 81.13 129.98 81.11 130 80.78 130.46 81.07 130.67 81.1 130.69 81.1 130.73 81.13 131.2 81.14 131.29 81.04 131.28 80.43 131.26 80.18 131.68 80.34 132.52 80.35 132.56 80.32 132.59 78.4 134.54 78.4 134.54"></polygon> <polygon class="cls-2" points="75.49 125.5 74.84 126.3 74.53 126.79 74.66 127.46 75.33 127.77 75.24 128.81 76.94 129.88 76.99 131.85 78.32 134.38 80.17 132.51 80.01 131.68 80 131.65 80.02 131.62 80.31 131.13 80.33 131.09 80.38 131.09 80.96 131.11 80.94 130.78 80.62 130.54 80.55 130.49 80.6 130.43 80.96 129.93 80.96 129 79.73 127.74 78.51 127.48 78.49 127.48 78.48 127.47 77.61 126.89 77.59 126.87 77.58 126.84 77.36 126.11 76.92 126.03 76.48 126.28 76.43 126.31 76.39 126.27 75.49 125.5 75.49 125.5"></polygon> <polygon class="cls-2" points="76.66 121.15 75.91 121.47 75.56 122.18 75.02 122.32 74.97 123.21 75.73 123.66 75.55 125.33 76.45 126.11 76.87 125.88 76.89 125.86 76.92 125.87 77.44 125.95 77.49 125.96 77.51 126.01 77.73 126.77 78.56 127.32 79.79 127.58 79.81 127.58 79.83 127.6 81.05 128.85 81.6 128.35 81.62 128.33 81.65 128.33 82.09 128.33 82.13 128.33 82.15 128.36 82.38 128.64 82.64 128.6 82.77 128.28 82.23 127.53 82.21 127.51 82.21 127.49 82.15 126.76 81.57 126.58 81.54 126.57 81.52 126.53 81.35 126.16 81.34 126.14 81.34 126.12 81.34 125.51 81.07 125.15 81.05 125.13 81.05 125.1 81.05 123.8 79.09 121.24 76.66 121.15 76.66 121.15"></polygon> <polygon class="cls-2" points="79.43 115.17 78.2 115.07 77.3 114.22 77.39 113.41 76.54 113.23 76.05 114.44 74.26 115.96 74.39 116.95 75.33 116.9 76.05 117.48 76.32 118.74 77.12 118.65 78.06 118.83 78.06 119.45 76.89 120.99 79.11 121.07 81.87 119.05 81.65 118.7 81.64 118.68 81.64 118.66 81.64 118.21 81.64 118.17 81.66 118.15 81.99 117.82 82 117.82 82.01 117.81 82.47 117.53 82.42 117.16 81.86 117.12 81.56 117.36 81.52 117.39 81.47 117.37 80.98 117.09 80.95 117.07 80.94 117.05 80.64 116.47 80.63 116.45 80.63 116.43 80.61 115.89 80.61 115.87 80.62 115.85 80.9 115.35 79.58 115.27 79.56 115.27 79.53 115.25 79.43 115.17 79.43 115.17"></polygon> <polygon class="cls-2" points="83.32 107.6 83.12 107.96 81.64 108.8 80.88 110.01 80.07 111.67 79.98 113.01 80.21 113.82 79.63 114.53 79.59 115.09 79.61 115.1 81.02 115.19 81.59 114.94 81.61 114.94 81.63 114.94 82.74 114.96 83.35 114.4 83.38 114.37 83.41 114.37 84.24 114.42 84.29 114.42 84.31 114.48 84.66 115.67 84.96 115.49 84.99 115.47 85.02 115.48 85.63 115.57 85.66 115.58 85.68 115.61 85.98 116.03 87.58 115.88 88.53 115.26 89.59 113.74 89.63 113.38 88.9 112.49 88.89 112.47 88.89 112.45 88.78 111.64 86.98 111.32 86.97 111.32 86.95 111.31 86.08 110.68 86.07 110.66 86.05 110.65 84.91 108.49 84.91 108.49 84.9 108.48 84.54 107.62 84.2 107.44 83.5 107.62 83.48 107.62 83.47 107.62 83.32 107.6 83.32 107.6"></polygon> <polygon class="cls-2" points="79.25 121.18 81.2 123.72 81.22 123.74 81.22 123.77 81.22 125.08 81.49 125.43 81.51 125.45 81.51 125.48 81.51 126.11 81.66 126.43 82.25 126.62 83.15 126.66 83.43 126.17 83.44 126.15 83.45 126.15 85.16 124.76 85.34 123.36 84.6 122.68 84.58 122.67 84.58 122.65 84.2 121.83 84.19 121.82 84.19 121.8 84.24 120.37 81.99 119.17 79.25 121.18 79.25 121.18"></polygon> <polygon class="cls-2" points="85.23 124.92 83.57 126.26 83.27 126.79 83.24 126.84 83.19 126.83 82.32 126.79 82.37 127.46 82.91 128.19 83.83 128.24 83.88 128.25 83.9 128.28 84.16 128.75 84.17 128.77 84.17 128.79 84.17 129.32 84.73 129.59 84.77 129.6 84.78 129.65 84.92 130.54 86.38 131.68 87.1 131.36 87.29 130.91 87.18 130.2 86.97 129.76 86.95 129.72 86.97 129.69 87.28 129.15 87.29 129.12 87.32 129.11 88.57 128.53 89.31 127.86 89.33 127.04 89.15 126.49 88.5 125.97 88.48 125.95 88.47 125.93 88.25 125.35 87.62 125.28 86.63 125.75 86.61 125.75 86.59 125.75 85.89 125.68 85.85 125.68 85.83 125.65 85.23 124.92 85.23 124.92"></polygon> <polygon class="cls-2" points="89.48 127.77 89.47 127.9 89.47 127.93 89.45 127.96 88.67 128.66 88.66 128.67 88.65 128.67 87.41 129.25 87.14 129.73 87.33 130.14 87.34 130.15 87.34 130.16 87.46 130.91 87.46 130.93 87.45 130.96 87.24 131.45 87.23 131.48 87.2 131.49 86.46 131.84 86.37 133.1 87.09 133.63 87.09 133.63 87.1 133.63 87.62 134.13 87.64 134.15 87.64 134.18 87.7 135.04 88.45 135.61 89.55 135.42 91.75 134.28 92.03 133.9 92.05 132.07 92.05 132.07 92.05 132.06 92.27 130.82 92.27 130.79 92.28 130.78 93.25 129.63 92.47 128.78 92.01 129.07 92 129.08 92 129.08 91.59 129.2 91.56 129.21 91.53 129.19 90.92 128.84 90.9 128.83 90.89 128.81 90.35 127.82 89.48 127.77 89.48 127.77"></polygon> <polygon class="cls-2" points="84.41 120.37 84.36 121.78 84.72 122.57 85.48 123.26 85.51 123.29 85.51 123.34 85.33 124.77 85.94 125.52 86.59 125.58 87.57 125.12 87.59 125.11 87.62 125.12 88.24 125.18 88.3 124.81 88.3 124.79 88.31 124.77 88.76 124.16 88.76 124.16 88.77 124.16 89.66 123.2 89.66 122.6 89.66 122.56 89.68 122.54 90.22 122 90.11 120.91 89.47 120.51 89.45 120.5 89.43 120.47 89.15 119.89 87.79 119.96 87.46 120.35 87.42 120.4 87.35 120.37 86.17 119.65 85.84 119.54 84.41 120.37 84.41 120.37"></polygon> <polygon class="cls-2" points="89.78 123.31 88.89 124.27 88.46 124.86 88.4 125.26 88.62 125.85 89.28 126.38 89.3 126.39 89.31 126.42 89.49 127.01 89.5 127.02 89.5 127.03 89.48 127.61 90.4 127.65 90.45 127.65 90.47 127.7 91.02 128.71 91.58 129.03 91.94 128.92 92.44 128.6 92.5 128.56 92.55 128.62 93.4 129.56 93.98 129.76 94.49 129.74 96.21 128.21 96.21 128.21 96.22 128.21 97.13 127.56 96.91 126.99 96.91 126.99 96.56 126.03 94.81 123.08 93.74 123.03 93.36 123.36 93.32 123.4 93.26 123.37 92.84 123.09 92.84 123.09 92.42 122.79 92.21 122.97 92.2 122.98 92.18 122.98 91.43 123.17 91.4 123.18 91.37 123.16 90.96 122.98 90.67 123.24 90.64 123.26 90.61 123.27 89.78 123.31 89.78 123.31"></polygon> <polygon class="cls-2" points="89.16 119.72 89.42 119.4 89.82 118.82 89.82 117.44 89.19 117.09 89.17 117.08 89.16 117.06 88.66 116.28 88.65 116.27 88.65 116.25 88.53 115.46 87.65 116.03 87.63 116.04 87.62 116.04 85.95 116.21 85.9 116.21 85.87 116.17 85.57 115.73 85.02 115.65 84.65 115.87 84.56 115.92 84.53 115.82 84.17 114.58 83.44 114.54 82.83 115.1 82.8 115.13 82.77 115.13 81.64 115.1 81.1 115.34 80.77 115.91 80.79 116.4 81.08 116.95 81.5 117.19 81.78 116.97 81.81 116.95 81.84 116.95 82.5 117 82.57 117 82.58 117.07 82.65 117.56 82.65 117.62 82.61 117.65 82.1 117.95 81.8 118.25 81.8 118.63 82.04 119.01 84.32 120.23 85.78 119.38 85.82 119.36 85.85 119.37 86.23 119.49 86.23 119.49 86.24 119.5 87.38 120.19 87.68 119.82 87.71 119.79 87.75 119.79 89.16 119.72 89.16 119.72"></polygon> <polygon class="cls-2" points="88.68 115.35 88.81 116.21 89.28 116.95 89.95 117.32 89.99 117.34 89.99 117.39 89.99 118.84 89.99 118.87 89.98 118.89 89.55 119.5 89.55 119.51 89.3 119.82 89.57 120.38 90.23 120.79 90.27 120.81 90.27 120.85 90.39 122.03 90.39 122.06 90.36 122.09 89.83 122.63 89.83 123.14 90.58 123.1 90.88 122.82 90.92 122.78 90.97 122.8 91.42 123 92.12 122.82 92.37 122.63 92.41 122.58 92.46 122.62 92.93 122.95 92.93 122.95 93.3 123.19 93.65 122.89 93.68 122.86 93.71 122.87 94.81 122.91 95.23 122.28 95.51 121.47 95.24 121.23 95.24 121.22 95.24 121.22 94.74 120.58 94.73 120.57 94.73 120.56 94.33 119.34 94.32 119.31 94.33 119.29 94.61 118.42 94.62 118.4 94.63 118.39 95.54 117.33 95.55 117.33 95.55 117.33 96.12 116.8 96.25 116.17 95.52 115.31 93.8 115.34 93.78 115.34 93.76 115.32 91.85 114.1 91.81 114.08 91.82 114.03 91.86 113.31 91.63 113.2 91.44 113.39 91.42 113.41 91.39 113.41 89.77 113.64 89.75 113.78 89.75 113.81 89.74 113.82 88.68 115.35 88.68 115.35"></polygon> <polygon class="cls-2" points="96.12 117.03 95.67 117.45 94.76 118.49 94.5 119.31 94.88 120.49 95.36 121.11 95.66 121.38 95.7 121.42 95.69 121.47 95.38 122.34 95.38 122.35 95.37 122.36 94.95 123 96.67 125.88 97.86 125.17 97.88 125.16 97.9 125.16 99.42 125.11 101.09 124.1 100.74 123.13 99.11 121.03 98.3 120.68 98.28 120.67 98.27 120.66 97.65 119.99 97.61 119.94 97.65 119.89 98.1 119.28 98.29 118.52 97.91 118.13 97.1 118.81 97.03 118.86 96.98 118.8 96.2 117.98 96.18 117.96 96.18 117.93 96.12 117.03 96.12 117.03"></polygon> <polygon class="cls-2" points="98.33 118.32 98.44 118.43 98.48 118.46 98.46 118.51 98.26 119.34 98.25 119.35 98.24 119.37 97.82 119.93 98.38 120.54 99.19 120.89 99.21 120.9 99.22 120.92 100.88 123.03 100.89 123.05 100.89 123.06 101.24 124.04 101.78 123.93 102.17 123.37 102.19 123.34 102.23 123.34 103.23 123.26 103.27 123.26 103.3 123.28 103.69 123.65 104.31 123.29 104.49 121.12 103.51 120.58 103.47 120.55 103.46 120.51 103.42 119.61 102.96 119.21 102.23 119.45 102.2 119.46 102.17 119.44 99.76 118.16 98.33 118.32 98.33 118.32"></polygon> <polygon class="cls-2" points="100.78 118.51 102.21 119.28 102.95 119.03 103 119.02 103.03 119.05 103.55 119.51 103.58 119.53 103.58 119.57 103.63 120.45 104.62 121 104.67 121.02 104.66 121.08 104.48 123.26 107.44 123.29 107.81 123.04 107.83 123.03 107.86 123.03 108.83 123.05 108.89 123.06 108.9 123.11 109.17 123.87 109.96 124.22 109.98 124.22 109.99 124.23 110.66 124.91 111.75 123.8 111.78 123.78 111.81 123.78 114.47 123.83 114.52 122.16 114.52 122.12 114.54 122.1 115.05 121.54 114.47 120.96 113.07 121.31 113.04 121.32 113.01 121.3 110.89 120.06 110.87 120.05 110.86 120.03 109.58 117.67 107.66 116.51 104.71 116.35 103.7 117.06 103.68 117.07 103.66 117.08 102.51 117.12 102.17 117.65 102.16 117.67 102.14 117.68 100.78 118.51 100.78 118.51"></polygon> <polygon class="cls-2" points="96.36 116.04 97.62 115.47 97.45 114.88 97.44 114.86 97.45 114.84 97.84 112.7 97.85 112.62 97.92 112.63 99.02 112.7 100.4 111.36 100.22 109.75 98.87 109.76 98.86 109.85 98.74 109.74 97.24 108.41 96.35 108.47 96.32 108.47 96.29 108.45 95.22 107.57 95.2 107.56 95.2 107.53 95.01 106.74 94.21 106.18 93.92 106.4 93.78 107.13 93.77 107.2 93.7 107.2 91.73 107.03 91.7 107.03 91.68 107.01 91.02 106.43 89.1 105.93 89.08 105.93 89.07 105.91 88.06 105.18 88.05 105.18 88.05 105.17 87.51 104.64 86.99 105.15 86.69 106.42 86.68 106.44 86.68 106.45 86.11 107.33 86.09 107.36 86.05 107.36 84.72 107.62 85.06 108.41 86.2 110.55 87.03 111.16 88.87 111.49 88.93 111.5 88.93 111.56 89.05 112.4 89.78 113.3 89.8 113.33 89.8 113.36 89.79 113.47 91.35 113.25 91.56 113.03 91.6 112.99 91.66 113.02 91.99 113.19 92.03 113.21 92.03 113.26 91.99 113.99 93.83 115.17 95.56 115.15 95.6 115.15 95.63 115.18 96.36 116.04 96.36 116.04"></polygon> <polygon class="cls-2" points="104.55 116.26 103.47 115.23 103.44 115.19 103.45 115.14 103.87 113.62 103.06 112.64 102.36 112.67 102.34 112.68 102.32 112.66 100.5 111.49 99.11 112.85 99.08 112.87 99.04 112.87 97.99 112.8 97.61 114.85 97.8 115.49 97.82 115.56 97.76 115.59 96.41 116.2 96.28 116.85 96.35 117.88 97.05 118.63 97.87 117.96 97.92 117.91 97.98 117.96 98.18 118.17 99.77 118 99.8 117.99 99.82 118 100.61 118.42 102.04 117.55 102.39 117 102.42 116.96 102.46 116.96 103.63 116.91 104.55 116.26 104.55 116.26"></polygon> <polygon class="cls-2" points="102.54 148.28 102.49 149.3 103.03 150.59 103.65 150.46 104.1 150.06 105.04 150.5 105 151.13 104.73 151.71 105.04 152.07 105.93 152.38 106.29 153.64 106.65 155.2 106.25 156.19 106.65 156.99 107.68 156.37 108.13 156.5 108.44 157.17 108.66 158.34 109.34 158.83 110.14 158.29 110.9 158.34 112.34 158.96 112.29 159.63 112.6 160.17 113.32 160.3 113.9 159.67 114.52 160.3 115.33 160.8 115.15 162.05 115.33 162.76 116.14 163.66 116.81 163.88 117.48 163.48 118.01 163.66 118.42 164.46 120.07 165 120.79 164.46 121.51 163.43 120.24 160.66 120.13 160.59 120.11 160.57 120.1 160.54 119.82 159.71 119.8 159.66 119.85 159.62 120.53 159.09 120.7 158.59 120.36 157.85 118.59 157.31 117.76 157.53 117.33 158.53 117.31 158.59 117.25 158.58 116.18 158.48 116.15 158.48 116.13 158.46 115.15 157.48 113.35 157.07 113.31 157.06 113.29 157.03 112.9 156.27 112.87 156.21 112.91 156.17 113.62 155.42 113.17 154.96 113.15 154.93 113.15 154.89 113.18 154.42 113.18 154.37 113.24 154.35 113.89 154.16 113.96 153.05 113.03 153.1 112.58 153.4 112.47 153.48 112.45 153.34 112.29 152.03 112.28 151.97 112.35 151.95 112.76 151.78 112.81 151.01 112.39 150.54 112.37 150.52 112.37 150.48 112.42 148.66 111.91 147.95 111.9 147.93 111.9 147.9 111.9 145.46 111.41 144.38 111.4 144.36 111.41 144.33 111.63 143.36 110.98 142.63 110.96 142.74 110.96 142.75 110.62 143.85 110.62 143.86 110.62 143.86 110.36 144.35 110.35 144.37 110.33 144.38 108.43 145.45 107.95 146.33 107.93 146.36 107.9 146.37 106.6 146.78 106.59 146.78 106.58 146.78 105.91 146.88 104.57 148.04 104.55 148.06 104.53 148.06 102.59 148.21 102.54 148.28 102.54 148.28"></polygon> <polygon class="cls-2" points="93.14 147.5 93.99 148.31 93.9 149.21 93.68 149.92 94.17 150.82 95.15 150.37 95.64 149.38 96.23 148.76 97.61 149.03 98.37 148.4 98.91 148.36 99.31 148.67 100.7 148.58 101.73 148.31 102.42 148.16 102.46 148.1 102.49 147.5 102.41 146.98 101.73 146 101.72 145.98 101.72 145.94 101.82 144.75 101.04 143.77 101.03 143.76 101.03 143.74 100.75 142.64 100.75 142.63 100.75 142.63 100.7 141.99 100.06 141.78 100.05 141.77 100.05 141.77 98.15 140.74 98.11 140.72 98.1 140.67 98.08 139.64 96.23 139.32 96.21 139.32 96.2 139.31 94.22 138.16 94.18 138.13 94.18 138.08 94.18 137.44 93.91 136.96 92.95 136.86 92.91 136.85 92.89 136.82 91.48 134.61 89.62 135.57 89.61 135.58 89.59 135.58 88.51 135.77 88.43 137.13 88.42 137.16 88.4 137.18 88.1 137.45 88.19 138.53 88.75 139.26 89.59 139.44 89.61 139.45 89.63 139.46 91.14 140.93 91.16 140.95 91.16 140.99 91.16 142.08 91.16 142.12 91.14 142.14 90.48 142.9 90.43 143.61 90.98 143.65 91.6 143.38 91.71 143.33 91.71 143.46 91.76 144.66 92.14 145.21 93.02 145.39 93.09 145.4 93.09 145.47 93.14 147.5 93.14 147.5"></polygon> <polygon class="cls-2" points="100.87 141.98 100.91 142.61 101.19 143.68 101.97 144.67 101.99 144.7 101.99 144.73 101.89 145.93 102.56 146.91 102.58 146.92 102.58 146.94 102.65 147.48 102.65 147.49 102.65 147.49 102.63 148.04 104.49 147.9 105.83 146.74 105.84 146.72 105.87 146.72 106.55 146.62 107.82 146.22 108.29 145.35 108.3 145.33 108.32 145.32 110.23 144.25 110.47 143.79 110.8 142.7 110.92 142.2 109.97 140.83 109.56 140.47 109.13 140.76 109.12 140.77 109.1 140.78 108.72 140.86 108.66 140.87 108.63 140.82 107.86 139.72 107.63 139.89 106.65 140.91 106.65 140.92 106.64 140.92 106.07 141.25 106.04 141.27 106.01 141.26 105.29 141.09 105.27 141.08 105.26 141.07 104.16 140.1 103.42 139.55 102.73 139.63 101.59 139.77 101.14 140.42 101.12 140.7 101.48 140.88 101.54 140.91 101.52 140.97 101.4 141.71 101.39 141.75 101.35 141.77 100.87 141.98 100.87 141.98"></polygon> <polygon class="cls-2" points="98.25 139.6 98.27 140.62 100.12 141.62 100.77 141.84 101.24 141.64 101.35 141 101 140.82 100.95 140.8 100.95 140.74 100.98 140.38 100.98 140.36 100.99 140.34 101.48 139.65 101.5 139.62 101.53 139.62 102.71 139.46 102.72 139.46 103.43 139.39 103.47 139.38 103.49 139.4 104.26 139.97 104.26 139.97 104.27 139.97 105.35 140.93 106.02 141.1 106.54 140.78 107.51 139.77 107.51 139.76 107.52 139.76 107.76 139.58 107.05 138.7 107 138.64 107.05 138.59 107.35 138.24 107.29 137.47 105.85 137.37 105.81 137.37 105.78 137.34 104.96 136.16 103.93 136.12 103.87 136.11 103.85 136.07 103.47 135.13 102.34 133.78 102.19 133.97 101.99 134.97 101.98 134.99 101.97 135 101.72 135.39 101.68 135.44 101.62 135.42 99.88 134.82 99.88 136.62 99.88 136.65 99.87 136.67 99.49 137.1 99.83 137.74 99.84 137.77 99.83 137.8 99.68 138.24 99.67 138.26 99.66 138.27 98.25 139.6 98.25 139.6"></polygon> <polygon class="cls-2" points="94.47 129.91 93.97 129.93 93.95 129.93 93.94 129.92 93.38 129.73 92.42 130.87 92.22 132.08 92.19 133.93 92.19 133.95 92.18 133.97 91.88 134.4 91.86 134.41 91.84 134.42 91.63 134.53 93.01 136.7 93.97 136.79 94.01 136.8 94.03 136.84 94.34 137.38 94.35 137.39 94.35 137.42 94.35 138.04 96.27 139.16 98.13 139.48 99.53 138.17 99.66 137.78 99.32 137.12 99.29 137.07 99.33 137.03 99.72 136.59 99.72 134.78 99.05 134.73 99 134.73 98.98 134.68 98.51 133.67 97.45 133.48 97.09 133.79 97.01 133.85 96.96 133.77 96.3 132.66 96.29 132.65 96.28 132.63 96.19 131.4 95.06 131.4 95 131.4 94.98 131.34 94.47 129.91 94.47 129.91"></polygon> <polygon class="cls-2" points="97.22 127.7 96.32 128.34 94.62 129.85 95.12 131.23 96.27 131.23 96.34 131.23 96.35 131.31 96.45 132.6 97.05 133.6 97.36 133.33 97.39 133.3 97.43 133.31 98.59 133.51 98.63 133.52 98.65 133.56 99.11 134.57 99.72 134.61 99.72 134.58 99.83 134.62 101.61 135.24 101.83 134.92 102.03 133.91 102.03 133.9 102.04 133.88 102.27 133.6 102.64 132.98 102.66 132.54 102.17 132.26 102.14 132.24 102.13 132.2 102.06 131.67 101.75 131.5 101.59 131.77 101.57 131.81 101.52 131.81 100.32 131.86 100.19 132.19 100.16 132.25 100.1 132.24 99.48 132.14 99.44 132.13 99.42 132.1 98.78 130.89 98.77 130.88 98.77 130.86 98.59 129.1 97.22 127.7 97.22 127.7"></polygon> <polygon class="cls-2" points="102.83 132.54 102.81 133.01 102.81 133.03 102.8 133.05 102.44 133.64 103.61 135.03 103.62 135.04 103.62 135.05 103.79 135.46 104.65 135.21 104.65 135.21 104.66 135.21 105.8 135.06 105.92 134.18 105.93 134.14 105.97 134.12 106.56 133.78 106.57 133.78 106.58 133.77 107.75 133.48 107.87 132.5 107.55 130.76 105.31 130.04 104.03 130.41 103.91 131.73 103.91 131.77 103.88 131.79 102.83 132.54 102.83 132.54"></polygon> <polygon class="cls-2" points="96.74 126.03 97.07 126.93 97.07 126.93 97.3 127.55 98.73 129 98.75 129.02 98.76 129.05 98.94 130.83 99.55 131.98 100.06 132.07 100.19 131.75 100.21 131.7 100.26 131.7 101.47 131.64 101.65 131.35 101.7 131.28 101.77 131.32 102.17 131.55 102.21 131.57 102.22 131.61 102.29 132.13 102.75 132.4 103.75 131.68 103.87 130.33 103.88 130.28 103.93 130.26 105.23 129.89 105.29 127.95 105.3 127.88 105.37 127.87 106.55 127.82 107.18 127.31 107.22 127.28 107.27 127.31 108.54 128.1 109.54 126.7 109.59 126.64 109.65 126.69 110.84 127.54 111.67 127.18 112.03 126.75 111.33 125.83 109.88 124.36 109.08 124.01 109.04 123.99 109.03 123.96 108.77 123.22 107.88 123.2 107.51 123.44 107.49 123.45 107.47 123.45 104.41 123.43 103.71 123.83 103.66 123.86 103.62 123.82 103.21 123.43 102.28 123.5 101.9 124.06 101.88 124.09 101.84 124.09 101.22 124.22 99.49 125.26 99.47 125.27 99.45 125.27 97.93 125.32 96.74 126.03 96.74 126.03"></polygon> <polygon class="cls-2" points="108.49 128.27 107.24 127.48 106.63 127.97 106.61 127.98 106.58 127.99 105.46 128.03 105.4 129.9 107.65 130.62 107.69 130.64 107.7 130.68 108.04 132.48 108.04 132.49 108.04 132.5 107.93 133.42 108.53 133.18 108.54 133.17 108.55 133.17 110.43 132.91 110.45 132.91 110.47 132.91 111.8 133.33 111.83 133.34 111.85 133.37 112.26 134.06 112.94 133.43 112.89 131.94 112.59 131.21 111.68 130.2 109.33 129.79 109.31 129.78 109.29 129.77 108.75 129.32 108.72 129.31 108.72 129.28 108.49 128.27 108.49 128.27"></polygon> <polygon class="cls-2" points="112.95 133.65 112.3 134.26 112.23 134.32 112.17 134.24 111.72 133.48 110.44 133.08 108.59 133.34 107.9 133.6 107.9 133.61 107.85 133.63 106.63 133.93 106.08 134.24 105.96 135.15 105.95 135.21 105.89 135.22 104.69 135.37 103.85 135.61 103.99 135.95 105.01 136 105.05 136 105.08 136.03 105.9 137.21 107.37 137.31 107.44 137.31 107.45 137.38 107.53 138.26 107.53 138.29 107.5 138.32 107.22 138.65 107.89 139.48 107.9 139.48 107.95 139.55 108.74 140.68 109.05 140.62 109.52 140.29 109.58 140.26 109.63 140.3 110.09 140.71 110.09 140.72 110.1 140.73 111.07 142.14 111.09 142.17 111.09 142.2 111.03 142.43 111.78 143.28 111.81 143.31 111.8 143.35 111.57 144.34 112.04 145.37 112.24 145.37 112.53 144.71 112.53 144.71 112.9 143.9 112.92 143.85 112.98 143.85 113.6 143.87 113.63 143.88 113.64 143.89 114.47 144.39 114.66 144.12 114.51 143.22 113.93 142.63 113.9 142.61 113.91 142.56 114.04 141.65 114.05 141.57 114.13 141.58 115.66 141.76 116.89 141.36 117.06 140.35 116.62 140.28 116.59 140.27 116.57 140.25 116.28 139.91 116.22 139.85 116.29 139.79 116.95 139.32 116.98 139.1 116.41 139.03 116.35 139.02 116.34 138.96 116.26 138.6 116.25 138.57 116.27 138.54 116.6 137.95 116.39 137.79 115.29 138.39 115.26 138.41 115.23 138.4 113.92 138.14 113.89 138.13 113.87 138.1 113.32 137.21 113.32 137.2 113.31 137.2 112.97 136.13 112.97 136.11 112.97 136.1 112.95 133.65 112.95 133.65"></polygon> <polygon class="cls-2" points="113.31 136.64 113.47 137.13 113.99 137.99 115.23 138.23 116.36 137.62 116.4 137.59 116.45 137.63 116.76 137.86 116.82 137.91 116.78 137.97 116.43 138.6 116.49 138.87 117.08 138.94 117.17 138.95 117.15 139.04 117.1 139.38 117.1 139.41 117.07 139.43 116.46 139.87 116.67 140.12 117.16 140.19 117.93 140.19 118.71 139.48 118.74 137.69 118.74 137.6 118.83 137.61 119.54 137.66 120.29 136.84 120.76 135.63 120.76 135.61 120.77 135.6 121.49 134.83 122.33 132.68 121.9 132.35 121.9 132.35 121.89 132.34 121.4 131.78 120.74 131.9 120.7 131.91 120.67 131.88 119.81 131.06 118.46 131.02 118.44 131.48 118.44 131.49 118.36 132.14 118.35 132.17 118.33 132.2 117.36 133 117.32 133.04 117.27 133.01 116.5 132.66 115.91 132.61 115.3 134.82 115.29 134.87 115.23 134.88 113.92 135.08 113.31 136.64 113.31 136.64"></polygon> <polygon class="cls-2" points="118.83 139.6 118.02 140.34 117.99 140.36 117.96 140.36 117.22 140.36 117.05 141.44 117.04 141.49 116.99 141.5 115.69 141.92 115.67 141.93 115.65 141.93 114.19 141.75 114.08 142.54 114.65 143.12 114.67 143.13 114.68 143.16 114.83 144.13 114.84 144.16 114.82 144.19 114.56 144.56 114.51 144.62 114.45 144.58 113.58 144.04 113.03 144.02 112.68 144.77 112.68 144.77 112.37 145.48 112.35 145.53 112.29 145.53 112.06 145.53 112.06 147.87 112.57 148.58 112.59 148.6 112.59 148.63 112.54 150.46 112.96 150.92 112.98 150.95 112.98 150.99 112.93 151.85 112.92 151.9 112.87 151.92 112.47 152.08 112.6 153.19 112.96 152.95 112.97 152.94 113 152.93 114.04 152.88 114.13 152.88 114.13 152.97 114.05 154.23 114.04 154.28 113.99 154.3 113.34 154.49 113.32 154.87 113.79 155.36 113.85 155.42 113.79 155.48 113.08 156.24 113.42 156.91 115.21 157.32 115.24 157.33 115.25 157.34 116.23 158.32 117.2 158.41 117.62 157.42 117.64 157.39 117.68 157.38 118.51 157.15 118.63 156.4 118.74 155.62 118.75 155.56 118.8 155.55 119.87 155.3 119.99 154.44 120 154.43 120 154.41 120.89 152.9 120.9 152.88 120.92 152.87 122.41 152.03 122.45 152.01 122.49 152.03 123.23 152.41 123.59 152.41 123.86 151.46 123.87 151.41 123.91 151.4 124.66 151.17 125.07 150.84 124.5 150.25 124.16 150.4 123.61 150.69 123.58 150.71 123.55 150.7 121.17 149.91 121.16 149.91 121.14 149.9 120.6 149.45 120.58 149.44 120.58 149.42 119.95 148.01 119.93 147.98 119.94 147.95 120.23 147.12 120.24 147.09 120.27 147.07 121.39 146.39 121.41 146.38 121.44 146.38 122.07 146.43 122.1 146.44 122.13 146.47 122.62 147.12 122.64 147.14 122.64 147.17 122.66 148.25 123.12 148.61 123.7 148.35 123.72 148.34 123.74 148.34 124.29 148.39 124.31 148.39 124.33 148.41 124.69 148.67 124.7 148.67 124.7 148.68 125.54 149.5 125.94 149.28 126.22 148.72 125.7 148.03 125.69 148.01 125.69 147.99 125.61 147.44 125.6 147.41 125.61 147.39 126.15 146.39 126.27 145.57 125.83 145.5 125.82 145.5 125.81 145.5 124.27 144.82 124.26 144.81 124.25 144.81 123.6 144.28 123.58 144.27 123.57 144.24 123.34 143.51 122.71 143.67 122.65 143.69 122.62 143.64 122.33 143.25 122.32 143.23 122.32 143.22 122.21 142.53 122.21 142.53 122.12 142.12 121.41 141.95 121.36 141.94 121.35 141.88 121.28 140.96 119.63 140.88 119.55 140.88 119.55 140.8 119.55 139.58 118.83 139.6 118.83 139.6"></polygon> <polygon class="cls-2" points="123.91 125.44 122.81 125.95 122.77 125.96 122.74 125.95 119.61 124.74 118.55 125.93 118.5 125.99 118.44 125.94 117.94 125.54 117.91 125.51 117.91 125.47 117.91 123.6 117.65 122.98 117.63 122.93 117.66 122.89 120.17 120.09 120.07 118.88 119.34 117.99 118.35 118.15 116.93 119.08 116.91 119.1 116.88 119.09 115.61 119.04 115.43 119.49 116.33 120.33 116.39 120.39 116.34 120.45 115.23 121.59 115.23 121.59 114.68 122.19 114.63 123.91 114.63 124 114.55 124 111.85 123.95 110.77 125.03 111.45 125.72 111.45 125.72 111.46 125.73 112.21 126.7 112.25 126.76 112.2 126.81 111.79 127.3 111.77 127.32 111.75 127.33 110.87 127.72 110.82 127.74 110.78 127.71 109.63 126.87 108.65 128.23 108.87 129.21 109.38 129.63 111.74 130.04 111.77 130.04 111.78 130.07 112.72 131.11 112.73 131.12 112.74 131.13 113.05 131.89 113.06 131.9 113.06 131.92 113.11 133.46 113.11 133.5 113.11 133.5 113.14 136.09 113.23 136.38 113.78 134.97 113.8 134.93 113.85 134.92 115.15 134.72 115.77 132.5 115.78 132.43 115.85 132.44 116.53 132.49 116.54 132.49 116.56 132.5 117.29 132.84 118.2 132.09 118.27 131.47 118.29 130.93 118.3 130.85 118.38 130.85 119.85 130.9 119.88 130.9 119.9 130.92 120.75 131.73 121.42 131.61 121.46 131.6 121.5 131.63 122.01 132.23 122.42 132.54 123.1 131.77 123.64 131.04 123.03 130.51 123 130.49 123 130.45 123 129.57 123 129.52 123.05 129.49 125.37 128.52 125.29 127.27 123.91 125.44 123.91 125.44"></polygon> <polygon class="cls-2" points="175.64 100.55 176.26 100.62 176.38 100.21 175.96 99.74 175.46 99.9 175.64 100.55 175.64 100.55"></polygon> <polygon class="cls-2" points="177.63 103.76 178.36 104.04 179.12 103.9 178.8 102.76 177.88 103.28 177.63 103.76 177.63 103.76"></polygon> <polygon class="cls-2" points="179.36 104.32 178.46 104.38 178.02 105.99 176.54 104.64 176.13 106.03 177.7 107.73 177.79 109.21 174.93 106.66 174.84 105.04 176.04 103.57 176.23 101.2 175.73 101.42 175.15 103.03 174.26 103.84 173.32 104.11 172.42 105.45 172.47 108.98 170.27 112.43 170.41 114.53 172.64 114.53 174.48 116.72 174.48 118.83 173.18 120.39 173.54 121.11 174.57 121.69 172.64 122.14 172.11 120.12 173.54 117.62 172.92 115.74 170.72 115.43 169.51 116.59 169.38 119.23 167.37 121.29 165.53 121.96 164.28 123.3 160.07 120.71 160.07 119.45 162.89 120.75 164.37 120.17 166.74 118.65 168.35 115.43 168.08 113.68 170.81 107.19 171.12 106.08 170.81 104.6 172.6 102.9 172.96 100.53 171.57 98.69 173 98.5 172.79 96.78 171.38 96.67 171.27 97.93 171.57 98.69 170.68 98.33 169.33 99.37 167.72 101.42 166.47 102.63 164.59 103.08 163.61 104.02 164.59 105.32 163.52 107.24 162.04 107.68 162 108.36 163.29 109.7 162.85 110.95 163.07 111.76 163.56 112.47 161.91 114 161.37 113.14 160.92 111.22 159.18 108.42 158.18 109.25 158.76 110.3 158.79 110.34 158.76 110.38 157.54 112.55 158.01 114.11 158.02 114.14 158 114.18 157.24 115.35 157.22 115.38 157.2 115.39 155.98 115.79 155.16 116.74 155.14 116.77 155.1 116.77 152.02 116.91 150.46 118.2 150.43 118.22 150.41 118.22 149.4 118.24 149.31 120.86 149.31 120.88 149.29 120.9 148.09 122.6 148.87 124.25 151.84 124.47 151.86 124.47 151.88 124.49 153.3 125.58 153.33 125.61 153.33 125.65 153.37 127.08 153.87 127.53 157.27 127.72 157.31 127.72 157.33 127.75 158.38 129.07 158.4 129.09 158.4 129.12 158.49 131.29 159.07 132.04 159.09 132.07 159.09 132.1 159.04 133.51 161.28 133.51 161.32 133.51 161.34 133.54 163.39 135.4 166.21 136.63 166.23 136.64 166.25 136.66 167.29 138.38 169.13 139.5 170.99 139.68 172.52 138.56 172.58 138.52 172.63 138.56 174.02 139.87 175.45 139.82 175.49 139.82 175.52 139.86 176.59 141.42 177.14 141.47 177.18 141.47 177.2 141.49 178.23 142.52 180.36 139.82 180.49 138.07 180.49 138.04 180.51 138.03 181.92 136.08 181.66 134.51 180.05 133.31 180.01 133.27 180.02 133.22 180.42 130.94 179.35 129.47 179.33 129.45 179.34 129.42 179.67 126.25 178.33 124.5 178.3 124.47 178.32 124.43 178.85 122.82 178.32 121.56 178.28 121.47 178.38 121.44 180.11 120.98 180.84 119.12 180.45 116.93 178.64 116.48 178.62 116.47 178.6 116.45 176.94 114.25 176.91 114.22 176.92 114.18 177.25 112.85 177.26 112.81 177.3 112.79 179.79 111.68 180.04 110.68 178.99 108.45 178.98 108.42 178.98 108.4 179.25 106.94 179.26 106.88 179.32 106.87 180.4 106.69 179.39 104.53 179.38 104.51 179.38 104.5 179.36 104.32 179.36 104.32"></polygon> <polygon class="cls-2" points="142.08 157.6 143.34 157.57 144.37 159.32 145.2 159.45 145.22 159.42 145.5 158.69 145.5 158.67 145.52 158.66 146.99 157.28 147.22 156.24 147.22 156.21 147.24 156.2 148.12 155.22 148.15 155.18 148.2 155.2 149.31 155.41 149.59 154.97 149.77 154.17 149.47 153.34 148.52 152.98 148.49 152.97 148.48 152.93 148.34 152.41 148.33 152.37 148.35 152.34 148.8 151.8 148.94 150.43 148.94 150.4 148.96 150.38 150.55 148.84 150.61 148.78 150.66 148.84 151.55 149.73 151.6 149.78 151.55 149.83 151.07 150.52 151.69 150.63 151.71 150.64 151.72 150.65 153.32 151.79 154.55 151.61 154.57 151.61 154.6 151.62 155.75 152.26 156.86 152.31 158.37 151.27 155.67 149.25 155.66 149.23 155.65 149.22 154.34 146.66 154.34 146.65 153.38 144.5 152.63 144.33 152.63 144.33 152.62 144.32 151.04 143.67 151.02 143.67 151.01 143.65 150.22 142.9 149.98 143.53 149.96 143.59 149.9 143.59 148.64 143.54 148.34 143.88 148.33 143.89 148.32 143.9 147.52 144.32 147.5 144.33 147.47 144.33 146.86 144.2 146.46 144.5 146.44 144.51 146.41 144.51 145.62 144.51 145.61 144.51 145.59 144.51 144.59 144.08 144.16 144.89 144.14 144.93 144.1 144.93 142.69 145.21 141.77 146.78 141.75 146.83 141.7 146.83 139.18 146.74 138.49 148.2 138.53 149.62 138.53 149.68 138.47 149.7 137.8 149.89 137.57 151.01 138.14 152.34 138.14 152.34 138.14 152.35 138.38 153.23 139.44 153.55 139.46 153.56 139.48 153.57 140.46 154.46 140.48 154.49 140.49 154.52 140.51 155.44 141.96 156.7 141.99 156.72 141.99 156.76 142.08 157.59 142.08 157.6 142.08 157.6 142.08 157.6"></polygon> <polygon class="cls-2" points="130.13 156.05 132.65 156.63 134.08 157.53 134.93 156.86 136.18 157.53 140.39 158.34 141.92 157.64 141.92 157.6 141.83 156.81 140.38 155.54 140.35 155.51 140.35 155.48 140.32 154.56 139.38 153.7 138.29 153.37 138.25 153.36 138.23 153.31 137.99 152.4 137.4 151.05 137.39 151.03 137.4 151 137.63 149.87 136.44 149.3 135.55 149.74 135.49 149.77 135.45 149.72 134.72 148.78 133.17 148.25 131.41 148.78 131.51 149.28 131.51 149.29 131.51 149.3 131.48 150.9 131.48 150.94 131.44 150.96 129.05 152.75 128.99 153.62 130.79 154.7 130.86 154.74 130.82 154.81 130.13 156.05 130.13 156.05"></polygon> <polygon class="cls-2" points="120.24 160.44 120.75 159.76 122.45 159.63 122.58 158.42 123.39 157.98 124.24 158.02 125.26 158.83 125.89 158.25 125.13 156.99 124.77 155.74 125.62 154.84 126.38 154.62 127.55 155.87 129.96 156.02 129.96 156.02 129.96 156 129.97 155.99 130.63 154.8 128.86 153.74 128.82 153.71 128.82 153.66 128.88 152.7 128.89 152.67 128.92 152.64 131.31 150.85 131.34 149.3 131.13 148.2 130.49 147.59 130.15 147.8 130.12 147.82 130.08 147.81 129.47 147.66 129.45 147.65 129.43 147.64 126.88 145.45 126.44 145.57 126.32 146.42 126.32 146.44 126.31 146.45 125.77 147.45 125.85 147.95 126.38 148.66 126.41 148.7 126.39 148.75 126.08 149.38 126.07 149.4 126.04 149.41 125.57 149.67 125.52 149.7 125.47 149.66 124.59 148.8 124.25 148.56 123.75 148.51 123.14 148.78 123.09 148.81 123.05 148.77 122.53 148.36 122.5 148.33 122.5 148.29 122.47 147.2 122.01 146.6 121.45 146.55 120.38 147.2 120.11 147.98 120.72 149.34 121.24 149.76 123.57 150.53 124.09 150.26 124.09 150.25 124.48 150.07 124.53 150.05 124.58 150.09 125.25 150.79 125.32 150.86 125.24 150.91 124.75 151.31 124.74 151.32 124.72 151.32 124.01 151.54 123.73 152.52 123.72 152.58 123.65 152.58 123.21 152.58 123.19 152.58 123.17 152.57 122.45 152.2 121.02 153 120.16 154.48 120.03 155.38 120.02 155.43 119.97 155.45 118.89 155.7 118.8 156.42 118.8 156.43 118.68 157.16 120.45 157.7 120.48 157.72 120.5 157.75 120.86 158.55 120.88 158.58 120.87 158.61 120.68 159.16 120.67 159.18 120.66 159.2 120 159.72 120.24 160.44 120.24 160.44"></polygon> <polygon class="cls-2" points="138.09 128.02 137.65 128.76 137.34 129.48 137.34 129.49 137.33 129.5 135.89 131.4 135.89 131.41 135.88 131.41 133.73 133.52 133.72 133.54 133.7 133.54 131.89 134.37 131.85 135.18 132.43 136.3 132.46 136.35 132.42 136.39 131.64 137.31 131.51 138.51 131.51 138.53 131.5 138.55 130.99 139.18 130.96 139.22 130.93 139.22 129.21 139.3 128.97 140.38 128.97 140.41 128.94 140.43 128.22 140.89 128.16 140.93 128.11 140.88 127.42 140.12 126.47 141.63 126.45 141.66 126.4 141.67 124.83 141.83 123.49 143.43 123.73 144.17 124.35 144.67 125.87 145.34 126.36 145.41 126.88 145.28 126.93 145.27 126.96 145.3 129.53 147.5 130.09 147.64 130.46 147.41 130.51 147.38 130.56 147.42 131.27 148.1 131.29 148.12 131.29 148.14 131.38 148.62 133.15 148.08 133.18 148.07 133.21 148.08 134.8 148.63 134.83 148.64 134.84 148.66 135.54 149.56 136.4 149.13 136.43 149.11 136.47 149.13 137.74 149.73 138.37 149.56 138.32 148.18 138.32 148.16 138.33 148.14 139.05 146.62 139.07 146.58 139.13 146.58 141.65 146.66 142.54 145.14 141.89 144.17 141.87 144.14 141.88 144.11 141.96 143.18 141.96 143.18 142.2 141.5 140.48 140.39 140.45 140.37 140.44 140.35 140.15 139.59 140.13 139.54 140.16 139.5 141.15 138.31 140.95 137.29 140.95 137.29 140.61 135.47 140.6 135.43 140.62 135.4 141.45 134.25 141.41 132.89 140.45 130.61 138.83 129.65 138.8 129.63 138.79 129.59 138.54 128.48 138.09 128.02 138.09 128.02"></polygon> <polygon class="cls-2" points="149.23 118.24 148.26 118.25 146.87 119.49 146.85 119.51 146.81 119.51 145.55 119.58 145.5 119.58 145.48 119.54 145.07 118.89 143.03 120.71 142.71 121.88 142.7 121.9 142.68 121.92 140.53 123.83 138.18 127.87 138.68 128.38 138.69 128.39 138.7 128.42 138.94 129.52 140.56 130.48 140.59 130.49 140.6 130.52 141.57 132.84 141.58 132.86 141.58 132.87 141.62 134.27 141.62 134.3 141.6 134.32 140.78 135.47 141.11 137.25 141.11 137.25 141.32 138.31 141.33 138.35 141.3 138.38 140.32 139.57 140.59 140.26 142.34 141.39 142.38 141.42 142.38 141.47 142.13 143.21 142.13 143.21 142.04 144.1 142.67 145.04 144.03 144.78 144.48 143.93 144.51 143.86 144.59 143.89 145.64 144.35 146.38 144.35 146.78 144.04 146.81 144.02 146.85 144.02 147.47 144.16 148.22 143.76 148.54 143.4 148.57 143.37 148.61 143.37 149.85 143.42 150.1 142.73 150.15 142.61 150.24 142.7 151.12 143.52 152.67 144.16 153.46 144.35 153.5 144.36 153.52 144.4 154.49 146.58 154.49 146.58 155.79 149.13 158.52 151.17 160.02 150.31 160.2 149.39 160.21 149.36 160.24 149.34 161.15 148.74 161.18 148.73 161.2 148.73 162.28 148.86 163.22 145.87 163.23 145.84 163.25 145.82 164.57 144.82 164.6 144.79 164.64 144.81 166.06 145.22 166.07 145.22 166.08 145.23 167.98 146.49 170.88 146.54 170.91 146.54 170.93 146.55 172.94 148.03 175.36 146.64 175.41 146.61 175.45 146.64 176.7 147.54 178.12 147.36 179.68 146.7 179.96 145.97 178.19 144.96 178.15 144.93 178.15 144.88 178.15 142.68 177.1 141.63 176.54 141.59 176.5 141.58 176.48 141.55 175.41 139.99 173.99 140.03 173.95 140.03 173.93 140.01 172.57 138.73 171.07 139.84 171.04 139.85 171.01 139.85 169.09 139.67 169.07 139.67 169.06 139.66 167.18 138.51 167.16 138.5 167.15 138.49 166.12 136.77 163.31 135.55 163.3 135.54 163.28 135.53 161.25 133.68 158.96 133.68 158.87 133.68 158.87 133.6 158.92 132.12 158.34 131.37 158.33 131.35 158.32 131.32 158.24 129.15 157.22 127.88 153.83 127.7 153.81 127.7 153.78 127.68 153.23 127.17 153.21 127.15 153.21 127.12 153.16 125.69 151.8 124.63 148.8 124.41 148.76 124.4 148.74 124.36 147.91 122.63 147.89 122.58 147.92 122.54 149.14 120.83 149.23 118.24 149.23 118.24"></polygon> <polygon class="cls-2" points="90.9 99.26 90.5 99.59 90.25 100.22 90.3 102.32 90.31 102.38 90.25 102.4 88.7 102.9 88.6 103.63 88.6 103.69 88.53 103.7 88.01 103.75 87.88 104.26 87.87 104.28 87.85 104.29 87.63 104.52 88.16 105.05 89.15 105.77 91.08 106.27 91.1 106.28 91.11 106.29 91.77 106.87 93.63 107.03 93.76 106.34 93.77 106.31 93.79 106.29 94.16 106.01 94.21 105.97 94.26 106 95.13 106.63 95.15 106.64 95.16 106.67 95.35 107.46 96.37 108.3 97.27 108.24 97.3 108.24 97.33 108.26 98.73 109.51 98.79 108.87 98.55 108.09 97.91 107.4 97.87 107.35 97.91 107.3 98.51 106.36 98.4 105.34 97.85 104.25 97.83 104.23 97.84 104.2 97.99 103.44 97.46 103.37 97.4 103.36 97.39 103.3 97.26 102.8 96.31 102.78 96.27 102.77 96.25 102.73 95.96 102.22 95.94 102.19 95.96 102.14 96.2 101.69 96.16 101.09 95.42 100.85 95.2 101.13 95.18 101.17 95.13 101.17 94.62 101.11 94.59 101.11 94.58 101.09 94.07 100.64 93.26 100.74 93.21 100.75 93.18 100.7 92.72 99.88 92.18 99.63 91.26 100.09 91.18 100.13 91.15 100.04 90.9 99.26 90.9 99.26"></polygon> <polygon class="cls-2" points="100.57 111.34 102.38 112.51 103.1 112.47 103.14 112.47 103.17 112.5 104.02 113.55 104.05 113.59 104.04 113.63 103.62 115.14 104.72 116.19 107.68 116.34 107.71 116.34 107.73 116.35 109.68 117.54 109.71 117.55 109.72 117.57 111 119.93 113.07 121.14 114.48 120.78 114.52 120.77 114.56 120.8 115.17 121.42 116.16 120.39 115.28 119.57 115.24 119.53 115.26 119.48 115.48 118.92 115.5 118.87 115.56 118.87 116.86 118.93 118.24 118.02 118.24 117.07 117.29 116.59 117.22 116.56 117.25 116.49 117.55 115.68 116.67 115.39 116.09 115.65 116.01 115.69 115.98 115.61 115.28 113.83 113.56 113.78 113.52 113.78 113.5 113.75 112.4 112.49 111.36 111.83 111.35 111.83 111.35 111.82 110.35 110.88 110.35 110.88 110.35 110.88 107.42 107.55 107.39 107.53 107.39 107.49 107.62 105.83 107.62 105.8 107.63 105.78 108.72 104.55 108.01 104.32 107.95 104.29 107.95 104.24 107.95 103.1 107.07 103.11 106.47 103.68 106.45 103.71 106.41 103.71 105.17 103.65 105.14 103.65 105.12 103.62 104.54 103.01 103.98 103 103.16 103.27 101.84 104.27 100.98 106.08 100.95 106.13 100.9 106.13 99.46 106.02 98.65 106.45 98.08 107.33 98.69 107.99 98.7 108 98.7 108.02 98.96 108.84 98.96 108.85 98.96 108.87 98.88 109.6 100.29 109.59 100.37 109.59 100.38 109.66 100.57 111.34 100.57 111.34"></polygon> <polygon class="cls-2" points="90.65 95.15 89.78 95.25 88.4 96.32 87.59 97.44 86.02 97.35 85.09 98.92 83.97 99.05 83.92 100.26 82.27 101.33 82.36 102.9 83.03 103.75 82.27 104.69 82.45 105.45 83.52 105.72 83.74 106.83 83.4 107.44 83.48 107.45 84.19 107.27 84.22 107.26 84.25 107.27 84.62 107.47 85.99 107.21 86.53 106.37 86.84 105.09 86.84 105.07 86.86 105.05 87.72 104.19 87.87 103.64 87.88 103.59 87.94 103.59 88.44 103.54 88.54 102.83 88.55 102.78 88.6 102.76 90.14 102.26 90.09 100.21 90.09 100.19 90.09 100.18 90.35 99.51 90.36 99.49 90.38 99.47 90.87 99.07 91.37 97.53 90.72 96.48 90.71 96.46 90.71 96.44 90.65 95.15 90.65 95.15"></polygon> <polygon class="cls-2" points="99.14 92.96 97.66 93.01 95.82 93.68 95.73 95.16 95.91 95.83 95.38 96.28 94.97 95.25 94.26 95.2 93.14 94.13 91.75 95.02 90.82 95.13 90.87 96.41 91.54 97.48 91.55 97.51 91.54 97.54 91.03 99.12 91.28 99.9 92.15 99.46 92.18 99.44 92.22 99.46 92.81 99.74 92.84 99.75 92.85 99.78 93.3 100.57 94.09 100.47 94.12 100.46 94.15 100.49 94.66 100.95 95.1 101 95.32 100.7 95.36 100.65 95.42 100.67 96.26 100.95 96.31 100.97 96.32 101.02 96.37 101.7 96.38 101.72 96.36 101.74 96.13 102.18 96.37 102.61 97.33 102.63 97.4 102.64 97.41 102.7 97.54 103.21 98.1 103.29 98.19 103.3 98.17 103.38 98.01 104.2 98.55 105.27 98.56 105.29 98.57 105.3 98.66 106.25 99.4 105.86 99.42 105.85 99.45 105.85 100.85 105.96 101.7 104.18 101.71 104.16 101.72 104.15 103.07 103.13 103.08 103.13 103.1 103.12 103.94 102.84 103.95 102.83 103.97 102.83 105.15 102.86 105.76 102.37 104.62 100.88 103.9 100.74 103.84 100.73 103.83 100.68 103.48 99.54 103.03 99.59 102.95 100.28 102.94 100.37 102.85 100.35 102.49 100.26 102.45 100.26 102.43 100.23 102.15 99.75 101.8 99.85 101.74 100.67 101.74 100.76 101.64 100.74 101.14 100.63 101.1 100.62 101.08 100.59 100.79 99.99 99.38 100.01 99.34 100.01 99.31 99.98 98.75 99.14 97.41 99.14 97.38 99.14 97.35 99.11 96.99 98.66 96.94 98.6 96.99 98.55 99.27 95.79 99.14 92.96 99.14 92.96"></polygon> <polygon class="cls-2" points="118.85 87.38 119.22 85.09 119.76 85.85 119.54 87.46 120.21 88.89 120.39 91.27 121.33 92.7 121.55 94.17 125.04 96.28 127.19 95.88 128.8 93.68 129.25 91.36 128.53 88.58 128.62 84.55 128.17 83.08 127.05 81.29 126.88 79.9 127.37 79.59 128.04 80.53 128.71 80.08 128.08 78.87 125.71 77.26 122.31 76.95 121.64 77.44 119.94 78.42 119.99 79.77 118.82 81.65 116.54 81.69 115.78 82.65 117.45 84.87 117.47 84.9 117.46 84.94 117.2 86.26 118.58 86.95 118.6 86.96 118.61 86.98 118.85 87.38 118.85 87.38"></polygon> <polygon class="cls-2" points="114.68 96.7 114.57 95.97 114.71 95.34 114.12 94.53 114.66 93.55 116.31 91.49 117.7 91.04 118.51 89.65 118.81 87.64 118.48 87.09 117.07 86.38 117.01 86.35 117.02 86.29 117.29 84.94 115.67 82.78 113.76 85.18 112.78 85.14 111.53 85.99 110.63 85.94 110.27 86.84 109.87 87.6 109.16 88.13 109.56 88.89 109.07 89.39 107.41 89.12 106.96 90.68 106.65 93.05 105.67 93.46 101.28 92.88 99.3 92.95 99.36 94.23 100.44 94.01 100.45 94.01 100.47 94.01 101.87 94.21 101.9 94.22 101.92 94.24 102.49 95.03 102.5 95.06 102.5 95.08 102.47 96.07 102.47 96.1 102.46 96.12 101.97 96.69 102.02 97.78 102.02 97.79 102.02 97.8 101.88 98.76 101.88 98.79 101.85 98.81 101.14 99.36 100.93 99.9 101.21 100.48 101.59 100.56 101.63 99.78 101.64 99.73 101.7 99.71 102.17 99.57 102.23 99.55 102.27 99.61 102.56 100.11 102.8 100.16 102.87 99.5 102.88 99.43 102.95 99.42 103.54 99.37 103.6 99.36 103.63 99.43 103.98 100.59 104.68 100.72 104.72 100.73 104.74 100.75 105.85 102.21 106.02 101.75 105.91 100.36 105.91 100.34 105.92 100.32 106.42 99.33 106.43 99.32 106.44 99.31 108.27 97.34 108.3 97.3 108.35 97.31 109.41 97.57 109.45 97.57 109.47 97.61 109.8 98.23 109.82 98.25 109.82 98.28 109.64 99.35 109.64 99.38 109.62 99.4 108.84 100.16 107.5 101.66 107.14 102.94 108.03 102.93 108.12 102.93 108.12 103.02 108.12 104.17 108.84 104.41 109.35 103.85 109.38 103.82 109.41 103.82 110.07 103.82 110.33 102.61 110.33 102.59 110.35 102.57 111.58 101.29 111.28 100.79 111.28 100.79 110.89 100.13 110.88 100.1 110.88 100.06 111.16 99.07 111.17 99.05 111.18 99.03 112.38 97.83 112.49 97.19 112.5 97.1 112.59 97.13 113.41 97.35 113.92 97.45 114.56 96.76 114.57 96.75 114.58 96.74 114.68 96.7 114.68 96.7"></polygon> <polygon class="cls-2" points="133.52 105.76 131.87 107.89 132.45 108.78 132.48 108.83 132.45 108.87 132.08 109.56 132.35 110.69 132.36 110.75 132.31 110.78 131.26 111.39 131.21 111.41 131.17 111.39 129.81 110.51 128.51 110.57 128.44 110.57 128.42 110.5 128.21 109.54 124.93 107.01 124.57 107.56 125.48 109.06 125.49 109.09 125.49 109.12 125.21 110.39 125.21 110.42 125.19 110.44 124.4 111.22 124.76 111.83 124.77 111.85 124.77 111.87 124.83 112.53 124.83 112.61 124.75 112.62 123.46 112.67 122.44 114 122.39 114.81 123.61 115.31 124.13 114.69 124.14 114.68 124.16 114.67 125.33 114.28 125.39 114.26 125.42 114.32 126.14 115.76 126.18 115.82 126.12 115.87 123.44 118 123.39 119.18 123.39 119.22 123.36 119.24 122.41 119.96 122.37 119.99 122.33 119.97 121.16 119.49 120.32 120.18 117.82 122.97 118.07 123.55 118.08 123.57 118.08 123.58 118.08 125.43 118.48 125.76 119.52 124.59 119.56 124.54 119.62 124.57 122.77 125.78 123.87 125.28 124.49 123.75 124.51 123.69 124.57 123.7 126.67 123.9 126.7 123.9 126.72 123.92 128.27 125.67 129.97 126.55 132.35 126.81 133.29 126.3 133.34 126.27 133.38 126.3 135.96 128.41 137.53 128.64 140.4 123.74 140.4 123.73 140.41 123.72 142.55 121.81 142.88 120.64 142.89 120.61 142.9 120.6 145.03 118.7 145.1 118.64 145.15 118.72 145.59 119.41 146.78 119.35 148.17 118.11 148.2 118.09 148.23 118.09 150.38 118.06 151.94 116.76 151.96 116.74 151.99 116.74 155.06 116.61 155.87 115.67 155.88 115.65 155.9 115.64 157.12 115.24 157.84 114.12 157.37 112.57 157.36 112.53 157.37 112.5 157.94 111.5 157.35 111.39 156.96 111.97 156.94 112.01 156.89 112.01 156.17 112.01 155.23 112.88 155.19 112.91 155.15 112.9 154.03 112.64 153.16 113.63 153.14 113.66 153.1 113.66 150.55 113.87 150.52 113.88 150.5 113.86 139.41 105.94 138.34 106.27 138.33 106.28 138.31 106.27 133.52 105.76 133.52 105.76"></polygon> <polygon class="cls-2" points="116.6 93.6 116.94 93.98 117.41 93.66 117.28 93.12 116.92 92.85 116.64 93.23 116.6 93.6 116.6 93.6"></polygon> <polygon class="cls-2" points="149.88 94.84 150.45 94.43 150.45 93.49 149.77 93.33 149.88 94.84 149.88 94.84"></polygon> <polygon class="cls-2" points="159.09 108.27 158.24 106.7 156 104.28 154.3 104.28 154.08 105.27 154.03 106.75 152.83 107.46 152.15 107.33 151.71 108 150.86 107.33 151.84 106.43 151.84 105.45 148.66 105.4 147.1 104.24 144.68 104.47 143.83 103.3 145.26 103.17 146.02 101.69 144.1 101.24 143.21 102.32 142.76 101.51 137.84 100.3 137.21 100.93 136.49 100.26 133.9 101.78 132.56 100.48 132.96 99.32 132.56 98.15 134.17 97.62 135.65 98.65 136.36 97.48 136.32 95.38 134.35 93.23 133.76 95.34 131.08 97.08 130.86 98.43 129.58 99.59 130.08 102.26 131.49 104.38 132.78 104.54 132.82 104.54 132.84 104.58 133.53 105.59 138.31 106.11 139.4 105.77 139.44 105.75 139.48 105.78 150.57 113.7 153.06 113.5 153.93 112.49 153.96 112.45 154.01 112.47 155.15 112.73 156.08 111.86 156.1 111.84 156.14 111.84 156.85 111.84 157.24 111.26 157.27 111.21 157.32 111.22 158.03 111.35 158.6 110.34 158 109.27 157.96 109.21 158.01 109.17 159.09 108.27 159.09 108.27"></polygon> <polygon class="cls-2" points="155.16 103.63 154.17 103.74 153.38 102.43 153.59 101.23 154.85 100.91 155.21 102.27 155.16 103.63 155.16 103.63"></polygon> <polygon class="cls-2" points="139.8 97.47 140.57 98.48 142.38 98.53 142.59 97.85 142.48 96.84 141.52 95.8 140.14 96.28 139.8 97.47 139.8 97.47"></polygon> <polygon class="cls-2" points="153.27 98.82 153.7 94.84 154.01 93.33 155.32 91.92 156.89 91.39 157.51 90.5 157.15 89.4 158.3 90.14 159.35 90.03 159.61 89.25 160.28 89.3 160.34 88.52 161.18 88.83 161.33 88.04 161.96 88.73 162.43 88.1 162.59 87.16 163.48 87.78 164.05 87.26 165.25 87.52 166.25 86.37 173.89 86.21 175.72 85.22 175.92 83.86 175.14 82.92 173.31 83.39 173 84.07 169.86 83.81 168.5 82.66 167.29 83.34 166.09 82.81 164.58 83.81 163.32 83.81 162.69 84.33 161.85 83.44 161.44 85.27 160.49 85.33 160.39 86.05 158.04 86.79 157.2 86.42 156.67 87.05 157.36 87.73 156.41 88.62 154.9 87.99 154.69 89.14 153.59 89.09 153.54 89.98 152.02 90.76 151.08 90.45 150.03 91.24 149.98 92.39 150.98 93.38 151.03 94.89 150.09 95.84 150.82 97.46 151.65 97.57 151.71 98.3 152.65 98.5 153.27 98.82 153.27 98.82"></polygon> <polygon class="cls-2" points="129.43 99.72 128.08 100.93 127.46 99.77 128.35 99.59 127.23 97.48 125.53 97.75 123.83 97.17 121.73 97.48 120.57 100.39 119.72 99.9 118.51 97.08 118.69 94.89 116.72 95.12 116.18 96.99 117.03 98.02 116.23 99.09 114.93 98.38 114.71 96.87 114.67 96.89 114.01 97.6 113.98 97.63 113.93 97.62 113.38 97.51 113.38 97.51 112.64 97.31 112.54 97.88 112.54 97.91 112.52 97.93 111.31 99.13 111.05 100.08 111.42 100.71 111.75 101.26 111.79 101.31 111.74 101.36 110.49 102.67 110.22 103.92 110.2 103.99 110.13 103.99 109.45 103.99 108.92 104.57 108.92 104.57 107.78 105.87 107.56 107.47 110.47 110.76 111.46 111.7 112.5 112.35 112.51 112.36 112.52 112.37 113.6 113.61 115.34 113.67 115.39 113.67 115.41 113.72 116.1 115.47 116.63 115.23 116.66 115.21 116.69 115.22 117.68 115.55 117.77 115.58 117.74 115.66 117.43 116.48 118.36 116.94 118.4 116.97 118.4 117.02 118.4 117.97 119.36 117.82 119.41 117.81 119.44 117.85 120.21 118.79 120.23 118.81 120.23 118.84 120.33 119.95 121.09 119.33 121.13 119.3 121.17 119.32 122.35 119.8 123.22 119.13 123.28 117.95 123.28 117.92 123.31 117.89 125.97 115.78 125.31 114.46 124.24 114.82 123.7 115.47 123.66 115.51 123.61 115.49 122.27 114.94 122.22 114.91 122.22 114.86 122.28 113.97 122.28 113.94 122.3 113.92 123.35 112.54 123.37 112.51 123.41 112.51 124.65 112.46 124.61 111.9 124.23 111.25 124.2 111.19 124.24 111.15 125.05 110.33 125.32 109.12 124.39 107.6 124.37 107.55 124.4 107.51 124.84 106.84 124.89 106.77 124.96 106.82 128.34 109.42 128.36 109.45 128.37 109.47 128.57 110.4 129.83 110.35 129.86 110.35 129.88 110.36 131.22 111.22 132.17 110.67 131.91 109.57 131.9 109.53 131.92 109.51 132.28 108.83 131.7 107.93 131.67 107.88 131.71 107.84 133.38 105.67 132.72 104.7 131.43 104.54 131.39 104.53 131.37 104.5 129.93 102.34 129.92 102.33 129.92 102.31 129.43 99.72 129.43 99.72"></polygon> <polygon class="cls-2" points="174.18 69.18 174.73 69.7 175.5 69.04 175.11 68.49 174.56 68.62 174.18 69.18 174.18 69.18"></polygon> <polygon class="cls-2" points="175.39 69.63 175.81 69.98 176.54 69.6 176.75 68.73 176.19 68.59 175.39 69.63 175.39 69.63"></polygon> <polygon class="cls-2" points="177.37 69.52 178.1 70.19 179.56 69.45 179.28 68.62 178.27 68.21 177.41 68.93 177.37 69.52 177.37 69.52"></polygon> <polygon class="cls-2" points="178.93 67.96 179.56 68.28 179.97 67.79 179.45 67.3 178.93 67.96 178.93 67.96"></polygon> <polygon class="cls-2" points="181.68 66.23 181.88 66.89 182.51 66.64 182.27 65.85 181.68 66.23 181.68 66.23"></polygon> <polygon class="cls-2" points="179.59 64.6 179.94 64.91 180.39 64.56 179.73 63.94 179.38 64.21 179.59 64.6 179.59 64.6"></polygon> <polygon class="cls-2" points="177.72 65.01 177.82 65.53 178.52 65.98 178.93 65.36 178.55 64.6 177.72 65.01 177.72 65.01"></polygon> <polygon class="cls-2" points="176.36 65.57 177.68 66.75 177.51 67.75 176.19 67.3 175.32 66.3 176.36 65.57 176.36 65.57"></polygon> <polygon class="cls-2" points="180.04 69.35 180.22 70.12 181.68 70.08 182.27 69.11 181.78 68.31 181.16 69.21 180.22 68.97 180.04 69.35 180.04 69.35"></polygon> <polygon class="cls-2" points="176.05 71.09 176.43 71.64 176.78 71.19 176.43 70.6 176.05 71.09 176.05 71.09"></polygon> <polygon class="cls-2" points="172.44 67.27 173.03 68.28 173.73 67.62 173.38 66.78 172.44 67.27 172.44 67.27"></polygon> <polygon class="cls-2" points="174.14 66.96 174.28 67.55 174.66 67.27 174.35 66.61 174.14 66.96 174.14 66.96"></polygon> <polygon class="cls-2" points="173.52 63.66 173.97 64.28 174.39 63.87 173.69 63.24 173.52 63.66 173.52 63.66"></polygon> <polygon class="cls-2" points="169.42 62.41 169.63 63.24 170.26 63.73 171.16 63.66 171.71 64.11 172.06 63.69 171.37 63.07 170.74 63.26 169.42 62.41 169.42 62.41"></polygon> <polygon class="cls-2" points="169.59 64.53 169.53 65.26 170.18 65.91 170.85 66.75 171.05 66.37 170.88 65.57 171.78 65.36 172.93 65.74 173.66 65.01 173 64.25 172.44 64.04 171.85 64.49 171.05 64.6 170.57 64.8 169.59 64.53 169.59 64.53"></polygon> <polygon class="cls-2" points="171.02 67.27 170.88 67.75 171.4 68.07 171.43 67.41 171.02 67.27 171.02 67.27"></polygon> <polygon class="cls-2" points="68.07 88.98 71.1 95.53 72.98 94.55 73.15 90.94 72.25 89.55 71.84 91.19 70.93 90.62 70.2 88.49 69.3 89.07 68.07 88.98 68.07 88.98"></polygon> <polygon class="cls-2" points="78.71 137.08 78.69 137.53 77.3 137.48 76.76 138.29 76.05 138.38 75.2 139.9 73.77 140.44 72.74 138.92 70.32 138.6 69.2 139.77 71.62 141.2 70.9 141.69 69.65 140.93 68.93 141.5 69.36 142.34 70.24 142.34 70.28 142.34 70.31 142.37 71.36 143.67 71.4 143.72 71.37 143.77 70.59 145.27 71.61 146.54 71.64 146.58 71.62 146.63 71.38 147.11 71.32 148.11 71.92 148.85 72.48 148.21 72.51 148.17 72.57 148.19 73.5 148.54 73.84 147.98 73.88 147.91 73.94 147.94 74.68 148.25 74.74 148.27 74.74 148.33 74.74 149.46 75.62 149.87 75.67 149.89 75.67 149.94 75.67 151.04 76.13 151.78 77.21 151.67 77.56 151.02 77.59 150.98 77.64 150.98 79.4 150.98 80.47 149.79 80.42 149.21 79.43 149.09 79.36 149.09 79.36 149.02 79.29 148.17 78.38 146.89 78.36 146.85 78.37 146.82 78.85 145.05 78.25 144.15 78.2 144.08 78.28 144.03 79.58 143.28 79.64 143.25 79.69 143.3 80.16 143.77 81.06 143.71 81.59 142.66 81.41 140.88 81.4 140.83 81.44 140.8 82.83 139.9 82.6 137.72 81.51 137.66 80.73 138.2 80.68 138.24 80.64 138.21 79.77 137.65 78.71 137.08 78.71 137.08"></polygon> <polygon class="cls-2" points="88.05 150.33 89.56 149.83 89.78 148.67 91.08 147.95 92.47 147.6 92.97 147.44 92.92 145.54 92.07 145.37 92.04 145.37 92.02 145.34 91.61 144.74 91.59 144.72 91.59 144.7 91.55 143.58 91.02 143.81 91 143.82 90.98 143.82 90.34 143.77 90.26 143.76 90.27 143.68 90.31 142.86 90.31 142.83 90.33 142.81 91 142.05 91 141.02 89.53 139.6 88.68 139.42 88.65 139.41 88.64 139.39 88.04 138.61 88.03 138.59 88.02 138.57 87.94 137.47 86.7 137.03 86.67 137.02 86.66 136.99 86.14 135.96 85.48 136.17 85.46 136.17 85.44 136.17 84.15 136 84.02 136.88 84.01 136.91 83.98 136.94 82.76 137.68 83 139.93 83.01 139.98 82.97 140.01 81.58 140.91 81.76 142.66 81.76 142.69 81.75 142.71 81.19 143.83 81.17 143.87 81.12 143.87 80.13 143.94 80.09 143.94 80.06 143.91 79.61 143.46 78.44 144.13 79.01 144.99 79.03 145.02 79.02 145.06 78.54 146.82 79.43 148.06 81.62 148.3 81.85 147.68 81.87 147.62 81.93 147.62 82.68 147.68 82.74 147.69 82.75 147.75 82.99 148.88 83.83 148.99 84.58 148.51 84.61 148.5 84.64 148.5 87.3 149.05 87.34 149.06 87.35 149.09 88.05 150.33 88.05 150.33"></polygon> <polygon class="cls-2" points="81.53 160.55 82.94 161.06 86.7 160.97 86.38 159.5 87.32 159.32 88.04 155.29 87.41 154.44 86.47 154.22 86.61 153.46 87.77 152.38 86.73 150.94 87.23 150.68 87.89 150.39 87.23 149.21 84.64 148.67 83.95 149.11 84.43 150.35 84.44 150.37 84.43 150.4 83.94 152.73 84.55 153.82 84.56 153.85 84.55 153.89 83.94 155.67 84.18 156.76 84.21 156.88 84.09 156.87 82.99 156.74 82.41 157 82.35 157.02 82.32 156.96 81.92 156.37 81.56 156.8 82.14 158.17 82.16 158.23 82.12 158.26 81.34 158.9 81.33 158.91 81.33 158.91 80.63 159.28 81.53 160.55 81.53 160.55"></polygon> <polygon class="cls-2" points="78.59 161.13 79.98 161.15 81.32 160.54 80.44 159.3 80.38 159.22 80.47 159.18 81.24 158.77 81.96 158.17 81.39 156.81 81.37 156.76 81.4 156.73 81.86 156.18 81.93 156.09 82 156.19 82.41 156.81 82.95 156.58 82.97 156.57 82.99 156.57 84 156.69 83.77 155.68 83.76 155.65 83.77 155.63 84.38 153.87 83.78 152.78 83.76 152.75 83.77 152.72 84.26 150.39 83.79 149.15 82.91 149.03 82.85 149.02 82.84 148.97 82.6 147.85 81.98 147.79 81.76 148.42 81.73 148.48 81.67 148.47 79.47 148.24 79.52 148.94 80.5 149.05 80.57 149.06 80.58 149.13 80.64 149.81 80.65 149.85 80.62 149.88 79.5 151.12 79.48 151.15 79.44 151.15 77.69 151.15 77.34 151.78 77.32 151.83 77.27 151.83 76.09 151.95 76.04 151.96 76.01 151.91 75.51 151.11 75.5 151.09 75.5 151.07 75.5 150 74.62 149.58 74.57 149.56 74.57 149.51 74.57 148.38 73.94 148.12 73.61 148.68 73.57 148.74 73.51 148.72 72.57 148.36 72.03 148.98 72.64 149.73 73.27 149.61 73.32 149.61 73.36 149.65 73.77 150.25 74.61 150.49 74.65 150.5 74.67 150.54 75.04 151.52 75.91 153.01 75.92 153.04 75.92 153.07 75.67 154.53 76.59 156.18 76.6 156.19 76.6 156.2 76.91 157.51 76.91 157.52 76.91 157.53 76.85 158.86 78.26 160.26 78.27 160.27 78.27 160.29 78.59 161.13 78.59 161.13"></polygon> <polygon class="cls-2" points="69.95 165.78 69.47 166.25 69.56 167.6 70.81 169.39 70.73 171.26 70.5 172.16 71.62 173.55 72.15 173.32 72.47 172.79 73.14 173.14 73.86 173.37 74.71 172.83 74.71 170.46 75.29 167.1 77.43 165.05 77.62 162.9 77.39 161.96 78.43 161.17 78.13 160.37 76.76 159 76.26 159.39 76.23 159.41 76.2 159.41 74.74 159.35 73.95 159.97 74.23 160.54 74.27 160.6 74.2 160.64 73.5 161.08 74.39 162.36 75.35 162.54 75.4 162.55 75.42 162.6 75.73 163.78 75.75 163.85 75.68 163.88 74.93 164.19 74.91 164.2 74.9 164.2 74.14 164.14 73.17 166.02 73.13 166.11 73.05 166.04 72.3 165.41 71.86 165.91 71.83 165.94 71.79 165.94 69.95 165.78 69.95 165.78"></polygon> <polygon class="cls-2" points="69.56 164.1 69.87 164.95 70.01 165.61 71.76 165.77 72.23 165.24 72.29 165.18 72.35 165.23 73.07 165.85 74.02 164.01 74.05 163.96 74.1 163.97 74.89 164.03 75.55 163.75 75.27 162.7 74.33 162.52 74.29 162.51 74.27 162.48 73 160.65 72 160.59 71.52 160.81 72.06 162.85 72.08 162.92 72.02 162.95 69.56 164.1 69.56 164.1"></polygon> <polygon class="cls-2" points="68.96 163.24 68.98 163.61 69.45 163.96 71.88 162.83 71.37 160.88 70.93 161.07 70.51 162.4 70.5 162.42 70.48 162.44 69.86 162.93 69.85 162.95 69.84 162.95 68.96 163.24 68.96 163.24"></polygon> <polygon class="cls-2" points="67.08 160.42 67.14 161.96 68.93 162.81 68.95 163.07 69.77 162.8 70.36 162.33 70.78 160.98 70.79 160.95 70.83 160.93 71.82 160.49 71.04 159.86 70.75 160.36 70.72 160.42 70.66 160.4 68.63 159.91 67.11 160.4 67.08 160.42 67.08 160.42"></polygon> <polygon class="cls-2" points="65.76 157.34 66.7 158.38 66.74 159.81 67.03 160.25 67.03 160.25 67.05 160.24 68.6 159.75 68.62 159.74 68.65 159.74 70.64 160.23 71.27 159.13 70.99 158.23 70.05 158.23 70.02 158.23 70 158.21 68.16 156.55 66.85 156.49 65.76 157.34 65.76 157.34"></polygon> <polygon class="cls-2" points="63.45 153.05 64.55 154.89 64.55 156.01 65.64 157.21 66.77 156.34 66.8 156.32 66.83 156.32 68.1 156.38 68.05 155.04 68.04 155 68.08 154.97 68.77 154.52 67.79 152.67 67.46 153.34 67.43 153.39 67.37 153.38 66.2 153.26 66.16 153.25 66.14 153.22 65.49 152.34 63.45 153.05 63.45 153.05"></polygon> <path class="cls-2" d="M61.37,141.29l.09,1.56-.49.58.22.69.72.51v1.12l.4,1.79-.13,1.67L61.87,152l.34.49.72-.31.47.79,2.13-.75h.06v.05l.66.9,1.09.12.78-1.57h0l.84-.35-.32-.47h0l.47-.88-.52-.42-.06-.06.06-.06.6-.6.06-.53h0l.68-.31H70v.07l.45.78.61-.51.06-1h0l.23-.45-1-1.26h0v-.05l.79-1.52-1-1.23H69.2l-.55-1.08L67,140.26l-.22,2.14-.9-.44-1.71.09-.6.8-1.25-2.1-1,.89Zm1.68,9.85-.06-1h0V150h.16l1.09-.11v-.66h0v-.08h0l1.23-.91-.78-.5h0l-1-1.18h0v-.08l.13-.93h0v-.2H64l.87.32H65l.69,1.11h1.12v.16l.06,1,.68.58h0v.08l-.06,1.37V150l-1,1.28-.13.16-.12.16v-.4l-.14-1.14-1.56,1.72v.05h-.12l-1.18-.54h0v-.1Z"></path> <polygon class="cls-2" points="71.23 148.26 70.61 148.76 70.53 148.83 70.48 148.74 70.02 147.94 69.45 148.2 69.39 148.71 69.39 148.74 69.37 148.76 68.81 149.32 69.3 149.76 69.35 149.8 69.32 149.86 68.85 150.75 69.19 151.26 69.25 151.35 69.16 151.39 68.25 151.75 67.88 152.49 68.95 154.51 68.99 154.57 68.92 154.61 68.21 155.08 68.27 156.43 70.09 158.06 71.05 158.06 71.11 158.06 71.13 158.12 71.44 159.12 71.45 159.15 71.43 159.18 71.13 159.71 72.01 160.43 73.04 160.49 73.08 160.49 73.11 160.52 73.4 160.94 74.05 160.54 73.77 159.99 73.74 159.92 73.79 159.88 74.66 159.2 74.69 159.18 74.72 159.18 76.18 159.24 76.69 158.85 76.75 157.53 76.44 156.25 75.51 154.59 75.5 154.56 75.5 154.53 75.75 153.07 74.89 151.6 74.89 151.6 74.89 151.59 74.53 150.64 73.7 150.4 73.67 150.39 73.65 150.37 73.25 149.79 72.62 149.9 72.57 149.91 72.54 149.87 71.23 148.26 71.23 148.26"></polygon> <polygon class="cls-2" points="63.16 150.07 63.22 151.13 64.4 151.68 66.08 149.83 66.2 149.69 66.23 149.88 66.39 151.19 67.38 149.88 67.45 148.51 66.73 147.92 66.7 147.89 66.7 147.86 66.64 146.84 66.64 146.84 65.63 146.84 65.58 146.84 65.56 146.8 64.83 145.66 63.97 145.34 63.97 145.34 63.84 146.28 63.84 146.28 63.84 146.28 64.83 147.46 64.83 147.46 64.83 147.46 65.73 148.01 65.83 148.08 65.73 148.15 64.4 149.13 64.4 149.13 64.4 149.87 64.4 149.94 64.32 149.95 63.16 150.07 63.16 150.07"></polygon> <polygon class="cls-2" points="202.86 182.8 206.65 184.33 210.14 185.13 210.86 187.91 213.41 189.25 215.2 189.21 217.75 187.68 219.71 188.31 221.77 188.18 222.31 189.12 223.49 189.17 223.88 187.73 223.89 187.7 223.92 187.68 225.06 187.08 223.84 185.76 223.78 185.69 223.85 185.64 225.04 184.68 224.59 183.32 224.55 183.21 224.67 183.21 226.92 183.21 228.31 182.06 228.33 182.03 228.37 182.04 229.61 182.21 231.93 179.14 231.95 179.11 231.99 179.11 233.47 178.99 233.92 178.27 233.93 178.24 233.96 178.23 235.23 177.72 236.2 176.52 236.31 175.24 235.29 174.57 235.25 174.54 235.25 174.5 235.25 173.27 235.25 173.23 235.29 173.2 237.5 171.51 238.25 169.77 238.27 169.74 238.3 169.73 240.24 169.05 240.13 167.5 238.94 166.42 237.61 166.2 237.57 166.18 237.55 166.14 236.44 162.82 235.75 162.18 235.7 162.14 235.74 162.08 236.43 161.11 236.33 160.15 235.52 161.07 235.49 161.1 235.44 161.09 234.75 160.99 234.36 162.5 234.35 162.54 234.3 162.56 230.61 163.55 230.55 163.57 230.52 163.52 229.9 162.68 229.06 162.68 229.04 162.68 229.02 162.67 228.23 162.24 227.79 163.27 227.78 163.3 227.74 163.32 225.98 163.9 225.96 163.91 225.93 163.9 225.02 163.58 224.8 164.6 224.79 164.66 224.74 164.67 222.94 164.9 223.1 165.78 224.19 166.7 224.25 166.75 224.2 166.81 223.28 167.9 223.11 169.56 223.7 170.96 223.8 170.68 224.16 168.4 224.16 168.39 224.17 168.38 224.77 167.32 224.79 167.27 224.85 167.28 225.62 167.37 225.68 167.38 225.7 167.44 225.83 168.31 225.84 168.33 225.83 168.34 225.47 170.38 225.61 172.38 225.92 173.47 225.93 173.49 225.92 173.52 225.51 174.57 225.5 174.59 225.49 174.6 224.86 175.18 224.65 175.55 224.87 176.25 224.88 176.27 224.87 176.3 224.6 176.99 224.58 177.03 224.54 177.04 223.87 177.21 223.82 177.97 223.82 177.99 223.81 178.01 222.94 179.42 222.92 179.45 222.9 179.46 221.6 179.86 220.75 181.03 220.72 181.07 220.67 181.06 219.7 180.98 219.44 182.46 219.43 182.48 219.41 182.5 218.68 183.32 218.67 183.33 218.66 183.34 216.32 184.38 216.01 185.43 216 185.48 215.95 185.49 214.45 185.99 214.36 186.02 214.34 185.93 214.12 185.07 212.53 184.76 212.47 184.75 212.46 184.69 212.33 183.52 211.23 182.11 209.76 182.11 209.73 182.11 209.71 182.09 206.65 179.67 206.64 179.66 206.63 179.65 205.68 178.35 204.14 179.45 204.12 179.46 204.09 179.46 203.22 179.44 203.26 179.63 203.27 179.68 203.24 179.71 202.77 180.18 202.94 180.87 202.95 180.91 202.92 180.94 202.28 181.68 202.86 182.8 202.86 182.8"></polygon> <polygon class="cls-2" points="181.21 189.27 186.96 187.1 189.02 186.97 189.38 187.5 192.47 188.18 192.69 189.57 193.85 190.14 197.12 190.5 198.42 190.68 199.09 191.31 200.12 190.95 201.06 190.14 201.73 188.49 200.61 187.15 200.75 185.09 201.46 184.87 201.51 183.93 202.45 183.88 202.71 182.87 202.1 181.7 202.08 181.65 202.11 181.61 202.77 180.87 202.6 180.18 202.59 180.13 202.62 180.1 203.09 179.63 202.98 179.15 201.63 179.23 201.61 179.24 201.58 179.22 198.21 176.87 198.01 177.8 198 177.86 197.93 177.86 193.84 178.23 193.58 179.31 193.56 179.36 193.52 179.37 192.72 179.58 192.8 180.33 192.81 180.38 192.76 180.41 191.66 181.12 191.61 181.85 191.61 181.91 191.55 181.93 190.79 182.11 189.44 183.23 189.41 183.26 189.37 183.25 186.22 182.84 186.2 182.84 186.18 182.83 184.25 181.47 183.36 181.4 182.78 182.91 182.76 182.96 182.71 182.97 180.47 183.11 180.61 184.66 181.95 187.04 181.99 187.11 181.92 187.15 180.99 187.8 181.21 189.27 181.21 189.27"></polygon> <path class="cls-2" d="M168.77,184.71l.16,1.54,1.44.81v1.52l1.43.31.58.72,1.61-.85.31,1.12,1,1.52,1.61.18.49-1.08,2.15-.09,1.43-1-.23-1.59h0l.91-.63-1.31-2.33h0l-.14-1.5-1.15.86H179l-.06-.07-1-1.34h0l.37-1.61-.59-.68L176,180.3h-.07l-1.12.22h0l-.93-.73-.06.75h0l-.9,1.35v.05h-.06l-1.63-.15-1.31.43-.52.73.81.4h0l.22,1v.1h-.09l-1.48.17Zm9.68-3.8,1-.34.73-.36L181.4,179l-.28-.78v-.05l.22-.88-.3-1.18h0l.81-1,.42-1.25-1.2-.43h0l-.23-.75h0l.95-1.24-.5-1.21v-.06l.22-1h0l1.26-.59.62-.63-1.32-2.57h0l.19-.9-1.47.56h-.07l-1.85-.81-2.12.29-.81.95h-2.22v5.87l.8-.1h.08v.08l.14,1.17,1.11,1.18h0l.37,1,1,.74.08.05-.06.07-.78.92.63.68h0l-.3,1.2h0l-.75.51-.07,1.4,1.82.06h0l.61.69Z"></path> <polygon class="cls-2" points="157.46 171.4 159.63 181.78 160.79 181.6 161.59 180.44 162.36 180.75 162.58 181.96 165.04 183.3 166.97 182.58 167.99 183.03 168.73 184.55 170.15 184.39 169.95 183.54 169.09 183.11 169 183.07 169.06 182.99 169.66 182.16 169.67 182.14 169.7 182.13 171.05 181.68 171.07 181.67 171.08 181.68 172.68 181.82 173.54 180.53 173.62 179.65 173.63 179.5 173.75 179.59 174.77 180.4 175.79 180.19 175.87 178.68 175.87 178.64 175.9 178.61 176.7 178.11 176.98 176.98 176.34 176.26 176.29 176.21 176.34 176.16 177.1 175.25 176.13 174.55 176.11 174.54 176.1 174.51 175.73 173.48 174.61 172.29 174.6 172.27 174.59 172.25 174.45 171.13 173.68 171.23 172.67 172.14 172.64 172.16 172.61 172.16 170.69 171.98 170.11 172.42 170.06 172.46 170 172.42 169.41 171.96 167.74 173.58 167.68 173.64 167.63 173.58 166.32 172.32 166.3 172.31 166.3 172.28 166.07 171.32 165 169.89 160.59 171.41 160.56 171.42 160.53 171.41 159.6 171.01 159.17 171.31 159.12 171.34 159.08 171.31 158.37 170.87 157.46 171.4 157.46 171.4"></polygon> <polygon class="cls-2" points="154.09 167.01 156.4 167.06 155.47 168.04 157.4 171.25 158.33 170.7 158.38 170.68 158.42 170.7 159.12 171.14 159.54 170.85 159.58 170.82 159.62 170.84 160.57 171.24 165 169.72 165.06 169.7 165.1 169.75 166.21 171.24 166.23 171.25 166.23 171.27 166.45 172.22 167.68 173.4 169.35 171.78 169.4 171.73 169.46 171.78 170.06 172.25 170.61 171.83 170.64 171.81 170.67 171.81 172.59 171.99 173.56 171.11 173.6 165.18 172.83 165.18 171.74 166.09 171.67 166.15 171.62 166.08 171.15 165.47 171.13 165.45 171.14 165.42 171.27 163.17 168.05 163.09 168 163.08 167.98 163.04 167.4 161.97 165.73 162.01 165.67 162.02 165.65 161.95 165.33 160.76 164.28 159.39 158.64 156.71 158.64 158.53 158.64 158.58 158.6 158.61 157.54 159.23 157.85 160.42 157.88 160.53 157.76 160.52 156.39 160.43 155.31 160.88 154.69 162 154.83 165.23 154.83 165.25 154.82 165.27 154.09 167.01 154.09 167.01"></polygon> <polygon class="cls-2" points="145.38 159.49 146.02 159.67 146.07 160.84 145.67 161.29 145.94 162.09 145.04 163.12 145.22 163.88 147.14 164.33 147.23 165.36 148.17 165.4 148.89 165.58 149.6 166.39 148.58 167.24 148.58 167.95 149.6 167.64 150.5 168.13 151.3 167.95 151.98 167.37 153.9 167.02 154.66 165.22 154.52 161.98 154.52 161.96 154.53 161.94 155.18 160.77 155.2 160.75 155.23 160.74 156.34 160.27 156.36 160.26 156.38 160.27 157.66 160.35 157.36 159.21 157.35 159.15 157.4 159.11 158.48 158.49 158.48 153.96 157.71 153.14 157.66 153.09 157.71 153.04 158.52 152.04 158.45 151.42 156.93 152.46 156.91 152.48 156.88 152.47 155.72 152.43 155.7 152.43 155.68 152.41 154.54 151.78 153.31 151.96 153.28 151.97 153.25 151.95 151.64 150.79 150.91 150.66 150.79 150.63 150.86 150.53 151.38 149.79 150.6 149.02 149.1 150.48 148.96 151.84 148.96 151.87 148.95 151.88 148.51 152.41 148.62 152.84 149.56 153.2 149.6 153.21 149.61 153.25 149.94 154.13 149.94 154.15 149.94 154.18 149.75 155.01 149.75 155.03 149.74 155.04 149.41 155.55 149.38 155.6 149.33 155.59 148.21 155.37 147.38 156.29 147.15 157.34 147.14 157.37 147.12 157.39 145.65 158.77 145.38 159.49 145.38 159.49"></polygon> <polygon class="cls-2" points="176.61 147.68 175.4 146.81 172.98 148.2 172.93 148.23 172.89 148.2 170.85 146.71 167.96 146.66 167.93 146.66 167.91 146.65 166 145.37 164.64 144.98 163.37 145.94 162.42 148.98 162.4 149.04 162.33 149.03 161.21 148.9 160.36 149.46 160.18 150.38 160.17 150.42 160.14 150.44 158.61 151.32 158.69 152.05 158.69 152.09 158.67 152.12 157.88 153.08 158.62 153.87 158.64 153.89 158.64 153.93 158.64 156.52 164.37 159.25 164.39 159.26 164.4 159.27 165.47 160.67 165.48 160.68 165.48 160.7 165.79 161.85 167.45 161.8 167.5 161.8 167.52 161.85 168.11 162.92 171.36 163.01 171.45 163.01 171.44 163.1 171.3 165.4 171.7 165.91 172.75 165.03 172.77 165.01 172.8 165.01 173.69 165.01 173.77 165.01 173.77 165.01 175.91 165.02 176.71 164.08 176.73 164.05 176.76 164.05 178.94 163.75 178.96 163.75 178.98 163.76 180.83 164.57 182.32 163.93 182.39 162.4 182.4 162.37 182.42 162.34 183.98 161.16 184.18 160.44 182.83 160.01 182.81 160 182.79 159.99 181.82 159.01 181.8 158.99 181.79 158.97 181.64 157.69 181.64 157.65 181.67 157.62 183.37 156.14 183.44 155.28 182.32 155.14 182.27 155.13 182.25 155.09 181 152.5 176.69 151.84 176.62 151.83 176.62 151.75 176.62 150.55 176.62 150.53 176.63 150.5 177.21 149.79 176.61 147.68 176.61 147.68"></polygon> <polygon class="cls-2" points="182.16 168.75 181.65 168.99 181.44 169.9 181.95 171.15 181.97 171.2 181.94 171.23 181 172.47 181.19 173.15 182.43 173.58 182.51 173.61 182.48 173.68 182.03 175.03 182.03 175.05 182.02 175.06 181.22 176.08 181.51 177.24 181.51 177.26 181.51 177.28 181.29 178.15 181.58 178.96 181.6 179 181.56 179.04 180.28 180.32 180.27 180.33 180.26 180.33 179.51 180.71 179.51 180.71 179.5 180.71 178.5 181.07 178.14 182.64 179.12 183.89 180.33 182.97 180.45 182.88 180.45 182.95 182.64 182.8 183.22 181.28 183.25 181.22 183.31 181.23 184.23 181.3 184.88 179.92 184.89 179.89 184.92 179.88 186.09 179.44 186.45 178.66 186.45 177.78 186.45 177.74 186.49 177.71 187.57 177.14 187.49 176.22 187.05 174.88 187.04 174.88 187.04 174.87 186.82 173.62 185.86 172.13 185.83 172.09 185.85 172.05 186.27 171.14 185.53 170.67 184.28 170.82 184.28 170.82 184.27 170.82 182.93 170.82 182.87 170.82 182.85 170.76 182.16 168.75 182.16 168.75"></polygon> <polygon class="cls-2" points="180.12 102.35 180.88 103.35 181.41 103.11 181.25 101.73 180.72 101.45 180.12 102.35 180.12 102.35"></polygon> <polygon class="cls-2" points="182.24 96.05 182.63 96.56 183.05 96.12 182.86 95.43 182.33 95.59 182.24 96.05 182.24 96.05"></polygon> <polygon class="cls-2" points="196.83 71.59 198.5 71.9 198.11 70.64 196.94 70.67 196.83 71.59 196.83 71.59"></polygon> <polygon class="cls-2" points="198.22 74.74 199.14 73.51 198.92 72.43 199.81 71.84 200.71 70.95 201.71 71.84 202.27 73.43 202.61 74.13 201.68 74.63 201.68 75.5 199.39 76.53 198.22 75.47 198.22 74.74 198.22 74.74"></polygon> <polygon class="cls-2" points="197.39 76.11 199.14 76.78 198.89 77.62 198.09 78.06 196.91 77.25 196.72 76.47 197.39 76.11 197.39 76.11"></polygon> <polygon class="cls-2" points="198.95 78.9 199.73 76.98 201.88 75.91 202.27 77.39 202.83 77.23 202.91 76.59 203.89 77.53 203.81 78.79 203.08 79.96 203.69 80.69 203.52 81.77 202.74 82.19 201.15 81.11 199.73 79.88 198.92 79.51 198.95 78.9 198.95 78.9"></polygon> <polygon class="cls-2" points="204.56 79.99 204.37 82.5 203.41 84.23 203.78 85.54 205.34 84.29 206.99 84.17 207.85 83.31 207.96 81.3 207.04 80.13 206.26 80.91 205.84 80.47 205.9 79.26 204.56 79.99 204.56 79.99"></polygon> <polygon class="cls-2" points="209.16 83.62 209.3 84.29 210.53 84.56 210.47 84.09 209.25 83.34 209.16 83.62 209.16 83.62"></polygon> <polygon class="cls-2" points="199.84 88.64 200.48 89.11 200.96 88.84 200.63 88.14 199.84 88.64 199.84 88.64"></polygon> <polygon class="cls-2" points="194.18 87.72 194.99 88.16 195.04 87.52 194.51 86.91 194.12 87.25 194.18 87.72 194.18 87.72"></polygon> <polygon class="cls-2" points="199.17 90.4 199.48 90.73 199.87 90.37 199.42 89.89 199.17 90.4 199.17 90.4"></polygon> <polygon class="cls-2" points="185.54 98.82 186.16 99.4 186.58 98.98 186.42 98.33 185.89 98.2 185.54 98.82 185.54 98.82"></polygon> <polygon class="cls-2" points="187.04 99.56 187.39 99.81 187.62 99.38 187.23 98.94 187.04 99.56 187.04 99.56"></polygon> <polygon class="cls-2" points="187.94 97.87 188.28 98.1 188.49 97.71 187.96 97.37 187.94 97.87 187.94 97.87"></polygon> <polygon class="cls-2" points="188.56 96.95 188.96 97.25 189.32 96.72 188.72 96.28 188.4 96.51 188.56 96.95 188.56 96.95"></polygon> <polygon class="cls-2" points="185.77 93.76 186.21 94.07 186.86 93.67 186.49 93.03 185.93 92.87 185.4 93.33 185.77 93.76 185.77 93.76"></polygon> <polygon class="cls-2" points="187.15 91.5 186.99 91.9 187.34 92.38 187.71 91.99 187.73 91.55 187.15 91.5 187.15 91.5"></polygon> <polygon class="cls-2" points="186.11 75.62 186.01 76.15 186.55 76.69 187.31 76.71 187.28 76.03 186.75 75.33 186.11 75.62 186.11 75.62"></polygon> <polygon class="cls-2" points="189.49 71.54 190.2 71.76 190.98 71.56 190.52 70.54 189.95 70.08 189.54 70.47 189.46 71.11 189.49 71.54 189.49 71.54"></polygon> <path class="cls-2" d="M218.43,137.19l-.53.59h0l-1.29.27-1.16.51.06,1.3.34.87v.06l-.68,1.47.66,1.05h0l.13,1.57h0l-1,2h0l-1.71,1,.64,1.08h0l-.72,1,.38,1.29,1.45.46h0l.2,1h0l-1,1.15L214,155l.68.19h0l.35,1v.07h0l-.8.81-.35,1.2v.1h-.1l-1.49-.89h0l-.71-1.56-1.37.63-.2,1.32h0l-3,3.31.13,1.53v.06h0l-.82.34h-.07V163L205,160.51l-.78,1h0l-3.15.13-1.25,2.3,1.42,2.21h0l-.27,1.22v.06h-.06l-1.39.2-.78,1.51-.26,4.07v.09h-.09l-1.34-.13-1,.44v.8l2.29,2,3.44,2.4,1.38-.09h.08v.07l0,.23h.89l1.58-1.13h.07V178l1,1.37,3,2.4h1.52l1.14,1.46h0l.14,1.13,1.58.3h0V185l.21.82,1.37-.46.28-1h-1.5l-.33-.68v-.07h.07l.68-.41h0l1-.2,1.89-1.31.69-1h0l1.4-1.26.31-.94h0l.82-1.42h0l1-1.54.86-2.37h0l.65-1.9-.69-1.59h0l.18-1.71h0l.89-1.05-1.06-.88h0l-.18-1v-.09h.09l1.82-.23.22-1.06v-.09H225l1,.35,1.71-.57.46-1.08v-.08h.08l.86.46H230l.61.84,3.6-1,.4-1.54v-.07h.07l.72.11.91-1,.12-.14V160l.11,1.11,2.19.34,1.29-.9.06-1.67-1.37-1h0v-.08l-.11-2.11h0l.76-.58h2l-1.76-4-.94-.65-1.65.75h-.09v-.09l-.6-1.81-2.64-1.06-1.33.22-2.05,4.43h0l-1.37,1.62-.06.07-.07-.07-1-1-.64,1.14h-.05l-1.9.07-1.29,1-.06.05v-.06l-1.23-1.31h0l.23-3.39h0l1.12-2.62-1.5-.43h0l-.69-1.54h0l.52-2.18-1.17-.66h0v-.06l.08-2.13-.91-1.66-.68.49h-.06l-1-.07h-.08V139h0l.78-.49-.64-1Zm-8.09,41.21-.16-.82v-.07h.08l.79-.26-.34-1.2V176h.07l1-.34h.07v.06l.74,1.49,1.85-1.1h.07v.06l.64.9h0l.55.5.72-.27h1.07l.49.78h0v.05l-1.93,2.45v.06l-.06-.05-1.17-.82-1.43.13h-.06l-.84-.53h0l-1-.74-1-.09h-.06v-.07Z"></path> <polygon class="cls-2" points="210.36 177.62 210.49 178.31 211.46 178.39 211.49 178.39 211.51 178.39 211.53 178.41 211.55 178.42 211.55 178.42 212.55 179.15 213.37 179.66 214.77 179.53 214.8 179.53 214.83 179.53 214.86 179.54 214.88 179.56 215.99 180.34 217.83 178 217.39 177.31 216.46 177.31 215.76 177.57 215.71 177.59 215.66 177.61 215.62 177.57 215.59 177.54 215.04 177.04 215.04 177.04 215.03 177.03 215.02 177.02 215.02 177.02 215.02 177.01 214.42 176.17 212.63 177.24 212.56 177.28 212.48 177.33 212.44 177.25 212.4 177.17 211.69 175.75 210.88 176.06 211.2 177.19 211.22 177.26 211.24 177.34 211.17 177.37 211.09 177.39 210.36 177.62 210.36 177.62"></polygon> <path class="cls-2" d="M223.66,189.19h.76l.76,1.43,5.86.54,3.93-2.37h1.26l.4-1.3,1.92-1.79,2.69-.14.81.76,1.11-1,4.75.76.68-1.84,1.61-1.12-.68-1.65.71-4.48,1.21-1.21-.81-2.14-1.71-.18,1.2-2.24,2.14-1.48-1.93-2.89h0l.65-.93-1.15-.66h0l-.17-2.25-1.13.27h-.07v-.05l-.7-1.25-1.52.84h0l-.94-.94h0v-.06l.53-.75L244,159.83h0l-2.38-4.41h-1.91L239,156l.11,2,1.37,1h0v1.76h0l-1.35.95h0l-2.24-.34-.63.9.65.59h0l1.09,3.3,1.31.22h0l1.23,1.12h0l.12,1.64v.06h-.06l-2,.69-.75,1.71h0l-2.19,1.68v1.14l1,.69h0l-.12,1.35h0l-1,1.27h0l-1.26.52-.46.74h-.05l-1.48.12-2.33,3.09h0L228.6,182l-1.6,1.35h-2.2l.44,1.3v0h-.05l-1.16.94,1.23,1.35.07.07-.09.06-1.2.62-.37,1.37ZM233.78,184l.41-1.06h.1l2.32-.28.66-1.37,0-.1v-.11l.08.08.08.08.53.48.55-1.3v-.09h.09l1.18-.23H240l1.4.87h0v0h0l-.18.94v.1h-.1l-.69.17,1.18,1.08h0l.09.08.09.08h-.11l-.11.06-4.9,2.32h0l-2.81-1.76h-.12V184Z"></path> <polygon class="cls-2" points="234.34 182.95 233.93 184 236.75 185.76 241.61 183.41 241.61 183.41 241.61 183.41 240.32 182.23 240.21 182.12 240.36 182.09 241.21 181.89 241.38 180.95 239.97 180.07 238.8 180.31 238.2 181.72 238.15 181.83 238.07 181.75 237.45 181.18 236.77 182.61 236.75 182.65 236.7 182.66 234.34 182.95 234.34 182.95"></polygon> <polygon class="cls-2" points="216.92 137.12 216.87 137.15 216.82 137.12 215.89 136.39 213.65 136.39 213.66 136.29 213.8 135.07 213.8 135.04 213.82 135.02 215.1 133.47 215.48 132.45 214.65 131.88 214.61 131.85 214.61 130.68 213.89 129.89 213.86 129.86 213.87 129.82 214.2 128.23 213.35 127.59 213.28 127.53 213.34 127.46 214.61 126.06 214.14 120.12 212.65 117.84 213.4 117.45 215.19 116 215.21 115.98 215.25 115.98 216.3 116.1 216.69 114.25 216.69 114.23 216.7 114.22 217.22 113.44 217.35 112.39 217.36 112.36 217.38 112.34 219.58 110.6 218.63 109.47 218.61 109.44 218.61 107.64 216.7 104.94 216.69 104.92 216.69 104.9 216.42 103.53 215.84 102.75 215.82 102.72 215.82 102.69 215.88 101.9 214.7 102.5 213.36 103.53 211.52 104.06 210.81 105.32 210.86 103.53 214.57 99.68 216.63 95.97 217.57 92.65 214.7 89.39 212.02 89.3 211.08 90.64 210.01 90.82 210.81 88.54 208.62 88.27 209.34 87.24 207.99 86.12 206.78 86.57 204.86 89.43 205.31 91.13 203.25 91.27 203.29 91.8 204.06 92.92 202.58 92.61 201.82 93.32 200.12 93.01 199.89 92.25 197.48 92.29 197.52 93.68 194.61 94.08 192.64 95.65 191.12 95.69 190.01 96.68 189.51 98.69 190.45 100.39 189.02 100.75 185.22 100.13 183.03 100.08 182.36 101.29 182.27 104.42 183.65 105.76 184.32 107.33 182.4 107.33 180.74 104.24 179.53 104.31 179.54 104.47 180.6 106.72 180.65 106.82 180.54 106.83 179.4 107.02 179.15 108.4 180.2 110.64 180.22 110.67 180.21 110.7 179.94 111.76 179.93 111.8 179.9 111.82 177.41 112.93 177.09 114.18 178.71 116.32 180.55 116.78 180.6 116.79 180.61 116.85 181.01 119.14 180.89 119.44 180.89 119.43 180.24 121.08 180.23 121.12 180.19 121.13 178.51 121.58 179.02 122.79 179.03 122.81 179.02 122.85 178.49 124.44 179.83 126.17 179.85 126.2 179.84 126.24 179.5 129.4 180.58 130.88 180.6 130.9 180.59 130.94 180.19 133.2 181.78 134.4 181.81 134.42 181.82 134.45 182.09 136.09 182.1 136.12 182.07 136.15 180.66 138.11 180.52 139.85 180.52 139.88 180.5 139.9 178.32 142.67 178.32 144.84 180.1 145.87 180.17 145.9 180.14 145.96 179.82 146.79 179.81 146.82 179.78 146.84 178.18 147.52 178.17 147.52 178.15 147.53 176.79 147.7 177.38 149.78 177.39 149.82 177.37 149.86 176.78 150.59 176.78 151.68 181.06 152.35 181.11 152.35 181.13 152.39 182.38 154.98 183.54 155.12 183.62 155.13 183.61 155.21 183.53 156.19 183.53 156.22 183.51 156.24 181.81 157.72 181.95 158.92 182.9 159.86 184.3 160.3 184.38 160.33 184.36 160.4 184.13 161.23 184.12 161.25 184.1 161.27 182.56 162.45 182.48 163.99 182.48 164.04 182.47 164.04 182.26 165.02 183.6 167.62 183.63 167.67 183.59 167.72 182.91 168.39 182.9 168.4 182.89 168.41 182.32 168.68 182.99 170.65 184.27 170.65 185.54 170.5 185.57 170.5 185.6 170.51 186.42 171.04 186.48 171.08 186.45 171.14 186.02 172.08 186.97 173.54 186.98 173.55 186.98 173.57 187.21 174.84 187.65 176.18 187.66 176.19 187.66 176.2 187.74 177.18 187.74 177.23 187.69 177.26 186.61 177.84 186.61 178.7 186.6 178.72 186.23 179.54 186.22 179.58 186.18 179.59 185.01 180.02 184.38 181.36 186.26 182.68 189.36 183.09 190.7 181.97 190.72 181.95 190.74 181.95 191.45 181.78 191.49 181.06 191.5 181.02 191.53 181 192.63 180.3 192.55 179.52 192.54 179.45 192.61 179.44 193.43 179.22 193.69 178.13 193.7 178.07 193.76 178.06 197.86 177.7 198.06 176.76 195.78 174.71 195.75 174.68 195.75 173.71 195.79 173.69 196.82 173.21 196.84 173.2 196.86 173.2 198.14 173.33 198.4 169.33 198.41 169.31 198.41 169.3 199.23 167.73 199.25 167.69 199.29 167.69 200.67 167.49 200.92 166.36 199.51 164.14 199.48 164.09 199.5 164.05 200.8 161.67 200.82 161.63 200.87 161.63 204.03 161.49 204.89 160.36 204.98 160.25 205.03 160.38 206.23 162.96 206.91 162.67 206.78 161.17 206.78 161.13 206.8 161.11 209.85 157.79 210.05 156.47 210.04 156.42 211.67 155.67 211.71 155.75 212.45 157.36 213.83 158.18 214.14 157.06 214.15 157.03 214.16 157.02 214.94 156.24 214.63 155.3 213.92 155.11 213.86 155.1 213.86 155.03 213.93 154.14 213.93 154.11 213.96 154.09 215.02 152.97 214.83 152.1 213.38 151.64 213.34 151.63 213.33 151.58 212.91 150.22 212.9 150.18 212.93 150.15 213.64 149.17 212.99 148.06 212.95 147.99 213.02 147.95 214.77 146.87 215.77 144.94 215.64 143.41 214.97 142.34 214.94 142.3 214.96 142.26 215.63 140.8 215.3 139.94 215.29 139.93 215.29 139.92 215.23 138.56 215.22 138.5 215.27 138.48 216.5 137.93 216.51 137.93 216.52 137.93 217.79 137.66 218.34 137.05 217.88 136.48 216.92 137.12"></polygon> <polygon class="cls-2" points="321.77 135.07 321.41 130.6 320.92 128.53 319.45 127.06 319.58 124.87 320.34 124.24 317.79 121.29 317.83 119.23 318.91 118.07 318.64 116.9 316.49 116.28 314.3 112.38 314.84 112.03 315.51 112.97 316.58 112.29 314.92 110.73 314.03 111.22 312.6 110.29 312.58 110.32 311.84 108.58 310.36 108.58 310.18 109.61 309.24 109.52 306.2 103.43 306.38 101.51 307.59 101.24 306.69 97.66 308.62 99.18 308.66 94.89 310.18 93.32 312.46 93.28 311.17 90.1 310.55 83.26 309.07 83.71 309.04 83.72 309.01 83.7 307.91 83.12 306.01 88.58 305.99 88.64 305.93 88.63 303.51 88.57 301.28 89.25 301.2 89.28 301.18 89.2 300.45 87.2 297.44 87.38 296.9 88.34 296.88 88.38 296.85 88.38 294.77 88.87 294.41 89.95 294.4 90 294.35 90 293.21 90.12 292.86 91.38 292.84 91.42 292.8 91.44 291.5 91.85 291.73 93.13 293.6 95.85 294.77 96.1 294.81 96.1 294.82 96.15 295.62 98.22 296.94 98.1 296.97 98.1 297 98.12 297.88 98.94 297.9 98.96 297.91 98.99 298.15 100.27 299.37 100.95 300.21 100.17 297.92 97.44 298.46 95.65 300.65 94.89 299.49 96.63 299.76 97.98 301.5 99.18 302.31 99.23 302.26 100.48 303.02 100.66 302.31 104.24 303.11 105.58 303.38 109.74 304.01 112.43 304.86 115.11 303.87 116.19 304.18 117.22 303.65 117.93 305.04 119.54 305.26 122.09 307.16 124.24 307.16 124.24 309.42 126.79 321.77 135.07"></polygon> <polygon class="cls-2" points="135.91 128.58 135.89 128.57 135.87 128.56 133.32 126.47 132.41 126.98 132.38 126.99 132.36 126.98 129.85 126.7 129.85 126.68 128.18 125.81 128.17 125.81 128.15 125.79 126.61 124.06 124.62 123.87 124.03 125.33 125.44 127.19 125.46 127.21 125.46 127.24 125.54 128.57 125.54 128.63 125.49 128.65 123.17 129.63 123.17 130.41 123.8 130.97 123.86 131.02 123.13 131.99 123.13 131.99 122.5 132.7 121.64 134.9 121.63 134.92 121.62 134.93 120.9 135.7 120.44 136.91 120.43 136.93 120.42 136.94 119.64 137.8 119.62 137.83 119.57 137.83 118.9 137.78 118.88 139.43 119.63 139.41 119.72 139.41 119.72 140.72 121.36 140.8 121.43 140.8 121.44 140.87 121.51 141.8 122.21 141.97 122.26 141.99 122.27 142.03 122.37 142.51 122.38 142.51 122.48 143.17 122.72 143.5 123.34 143.34 124.73 141.7 124.75 141.67 124.78 141.67 126.35 141.51 127.34 139.93 127.4 139.84 127.48 139.92 128.19 140.72 128.82 140.31 129.07 139.2 129.08 139.14 129.14 139.13 130.88 139.05 131.35 138.47 131.47 137.26 131.48 137.24 131.49 137.22 132.26 136.33 131.69 135.24 131.68 135.22 131.68 135.2 131.73 134.31 131.73 134.26 131.78 134.24 133.62 133.4 135.76 131.3 137.19 129.4 137.46 128.79 135.91 128.58"></polygon> <polygon class="cls-2" points="60.68 139.92 61.65 138.8 59.48 135.96 60.76 132.31 59.84 131.55 59.04 132.11 55.87 129.95 55.47 130.59 55.59 133.15 54.39 134.44 54.71 136.2 56.8 136.08 59.12 139 60.68 139.92"></polygon> <path d="M133.23,131.87h4.62a19.64,19.64,0,0,1,1-6.54A12.55,12.55,0,0,1,142,120.1a13.58,13.58,0,0,1,3.28-2.23,14,14,0,0,1,4-1.18c1.49-.21,2.69-.34,3.62-.39s2.16-.08,3.7-.08,2.78,0,3.71.08,2.13.18,3.62.39a13.1,13.1,0,0,1,7.33,3.41,11.57,11.57,0,0,1,3.33,5.94,38.92,38.92,0,0,1,.87,9c0,2.1-.06,3.88-.18,5.33a20.94,20.94,0,0,1-1.19,5,11.22,11.22,0,0,1-2.83,4.57,12.1,12.1,0,0,1-3.26,2.23,13.79,13.79,0,0,1-4.07,1.18c-1.49.21-2.7.34-3.62.39s-2.16.08-3.71.08-2.77,0-3.7-.08-2.13-.18-3.62-.39a13.79,13.79,0,0,1-4.07-1.18,12.1,12.1,0,0,1-3.26-2.23,13,13,0,0,1-3.23-5.62,21.48,21.48,0,0,1-1-6.94h-4.62v16h-6.94V116.64h6.94ZM145,135q0,7.09,2.31,10.14A7,7,0,0,0,151,147.7a26.9,26.9,0,0,0,11.37,0,6.75,6.75,0,0,0,3.65-2.54q2.37-3,2.37-10.14T166,124.83a6.72,6.72,0,0,0-2.86-2.13,11.65,11.65,0,0,0-3.07-.84c-.88-.08-2-.13-3.42-.13a25.47,25.47,0,0,0-3.41.13,11.54,11.54,0,0,0-3.1.87,7.11,7.11,0,0,0-2.89,2.1Q145,127.73,145,135Z"></path> <path d="M180.23,147.89l12.4-27.79a7.54,7.54,0,0,1,2.1-2.89,6.08,6.08,0,0,1,3.78-1,6.27,6.27,0,0,1,3.68.92,6.83,6.83,0,0,1,2.2,3l12.35,27.79h3.09v5.51h-42.7v-5.51ZM197.62,124l-10.3,23.85h22.33L199.35,124c-.39-.77-.66-1.15-.84-1.15C198.16,122.89,197.86,123.27,197.62,124Z"></path> <path d="M219.31,153.4l14.23-33.72a11.37,11.37,0,0,1,.92-1.68,4.32,4.32,0,0,1,1.66-1.21,7.19,7.19,0,0,1,3-.57,6,6,0,0,1,3.76.92,6.78,6.78,0,0,1,1.86,2.54L259,153.4h-7.36L240,124c-.24-.67-.52-1-.84-1s-.64.35-.89,1l-11.61,29.4Z"></path> </svg> 